<svg width="64" height="64" viewBox="0 0 64 64" fill="none" xmlns="http://www.w3.org/2000/svg">
<g clip-path="url(#clip0_355_5677)">
<path d="M32.1069 22.3281C32.9878 22.3281 33.7012 21.6143 33.7012 20.7339C33.7012 19.8535 32.9878 19.1396 32.1069 19.1396C25.0635 19.1396 19.3535 24.8496 19.3535 31.8936C19.3535 38.937 25.0635 44.647 32.1069 44.647C39.1509 44.647 44.8608 38.937 44.8608 31.8936C44.8608 31.0127 44.147 30.2993 43.2666 30.2993C42.3862 30.2993 41.6724 31.0127 41.6724 31.8936C41.6724 37.1763 37.3901 41.459 32.1069 41.459C26.8242 41.459 22.5415 37.1763 22.5415 31.8936C22.5415 26.6104 26.8242 22.3281 32.1069 22.3281Z" fill="white"/>
<path d="M62.5249 22.4241C62.248 21.5877 61.3457 21.1341 60.5088 21.4109C59.6914 21.6814 59.2363 22.5515 59.48 23.3772C64.2475 38.5594 55.8052 54.7317 40.623 59.4993C25.4414 64.2669 9.26903 55.8245 4.50145 40.6424C-0.266618 25.4602 8.17625 9.28787 23.3579 4.52029C28.978 2.75564 35.0034 2.75564 40.623 4.52029C41.4668 4.77468 42.3569 4.29714 42.6113 3.4534C42.8618 2.62234 42.4023 1.74392 41.5766 1.47537C24.7187 -3.81369 6.76463 5.56472 1.47557 22.4231C-3.81349 39.281 5.56541 57.2351 22.4233 62.5242C39.2817 67.8133 57.2353 58.4348 62.5244 41.5764C64.4805 35.3421 64.4805 28.6585 62.5249 22.4241Z" fill="white"/>
<path d="M35.1431 11.3896C35.1514 10.4819 34.4541 9.72314 33.5488 9.65527C33.0728 9.61475 32.5962 9.57422 32.1074 9.57422C19.7808 9.57422 9.78809 19.5669 9.78809 31.8936C9.78809 44.2197 19.7808 54.2124 32.1074 54.2124C44.4336 54.2124 54.4263 44.2197 54.4263 31.8936C54.4263 31.3169 54.3911 30.7407 54.3203 30.1685C54.1929 29.2935 53.3804 28.6875 52.5054 28.8149C51.6304 28.9419 51.0244 29.7549 51.1514 30.6299C51.1562 30.6631 51.1621 30.6958 51.1689 30.729C51.2036 31.1152 51.2378 31.498 51.2378 31.8926C51.2383 42.4585 42.6733 51.0234 32.1079 51.0244C21.542 51.0249 12.9771 42.4595 12.9766 31.894C12.9761 21.3286 21.5405 12.7632 32.1064 12.7627H32.1069C32.5024 12.7627 32.8857 12.7969 33.271 12.8311L33.5698 12.856C34.4028 12.8916 35.1069 12.2451 35.1421 11.4121C35.1426 11.4043 35.1426 11.397 35.1431 11.3896Z" fill="white"/>
<path d="M41.6722 14.3569V20.0737L30.9799 30.7661C30.3466 31.3779 30.329 32.3872 30.9408 33.0205C31.5526 33.6538 32.5619 33.6714 33.1952 33.0596C33.2084 33.0469 33.2216 33.0337 33.2343 33.0205L43.9266 22.3281H49.6434C50.0663 22.3281 50.4716 22.1602 50.7709 21.8608L60.3358 12.2954C60.9584 11.6729 60.9584 10.6636 60.3358 10.041C60.037 9.74219 59.6317 9.57422 59.2089 9.57422H54.4261V4.7915C54.4261 3.91113 53.7123 3.19727 52.8314 3.19775C52.4091 3.19775 52.0038 3.36572 51.705 3.66455L42.1395 13.23C41.8402 13.5288 41.6722 13.9341 41.6722 14.3569ZM44.8607 15.0171L51.2377 8.64014V11.1685C51.2377 12.0488 51.9515 12.7627 52.8319 12.7627H55.3602L48.9833 19.1396H44.8607V15.0171Z" fill="white"/>
</g>
<defs>
<clipPath id="clip0_355_5677">
<rect width="64" height="64" fill="white"/>
</clipPath>
</defs>
</svg>
