<svg width="64" height="64" viewBox="0 0 64 64" fill="none" xmlns="http://www.w3.org/2000/svg">
<g clip-path="url(#clip0_355_5668)">
<path d="M51.874 3.75049V7.50064H60.2499V15.8765H64V3.75049H51.874Z" fill="white"/>
<path d="M3.75015 7.50064H12.126V3.75049H0V15.8765H3.75015V7.50064Z" fill="white"/>
<path d="M60.2499 56.4994H51.874V60.2495H64V48.1235H60.2499V56.4994Z" fill="white"/>
<path d="M3.75015 48.1235H0V60.2495H12.126V56.4994H3.75015V48.1235Z" fill="white"/>
<path d="M59.6253 33.2738L60.7847 32.0075L59.6253 30.7412C55.1328 25.8349 50.5558 22.0917 46.0214 19.6156C41.3899 17.0866 36.6734 15.8042 32.003 15.8042C27.3328 15.8042 22.6162 17.0865 17.9847 19.6156C13.4504 22.0917 8.87329 25.8349 4.38086 30.7412L3.22144 32.0075L4.38086 33.2738C8.87329 38.1801 13.4504 41.9233 17.9847 44.3994C22.6162 46.9283 27.3327 48.2108 32.003 48.2108C36.6733 48.2108 41.3899 46.9285 46.0214 44.3994C50.5559 41.9233 55.1328 38.1801 59.6253 33.2738ZM32.0016 44.4102C25.1627 44.4102 19.5987 38.8464 19.5987 32.0075C19.5987 25.1686 25.1627 19.6047 32.0016 19.6047C38.8405 19.6047 44.4045 25.1686 44.4045 32.0075C44.4045 38.8464 38.8405 44.4102 32.0016 44.4102ZM8.33415 32.0075C11.5599 28.6502 14.8013 25.9517 18.0058 23.9499C16.6342 26.323 15.8486 29.0751 15.8486 32.0075C15.8486 34.9399 16.6342 37.692 18.0058 40.0651C14.8013 38.0632 11.5599 35.3649 8.33415 32.0075ZM45.9957 40.0681C47.3683 37.6943 48.1547 34.9411 48.1547 32.0075C48.1547 29.0739 47.3683 26.3206 45.9957 23.9469C49.2018 25.9491 52.4448 28.6485 55.6722 32.0075C52.4447 35.3665 49.2017 38.0659 45.9957 40.0681Z" fill="white"/>
<path d="M32.0017 25.9412C28.6568 25.9412 25.9355 28.6624 25.9355 32.0073C25.9355 35.3522 28.6569 38.0735 32.0017 38.0735C35.3464 38.0735 38.0678 35.3522 38.0678 32.0073C38.0678 28.6624 35.3466 25.9412 32.0017 25.9412ZM32.0017 34.3234C30.7246 34.3234 29.6857 33.2843 29.6857 32.0073C29.6857 30.7302 30.7247 29.6913 32.0017 29.6913C33.2786 29.6913 34.3176 30.7304 34.3176 32.0073C34.3176 33.2843 33.2787 34.3234 32.0017 34.3234Z" fill="white"/>
</g>
<defs>
<clipPath id="clip0_355_5668">
<rect width="64" height="64" fill="white"/>
</clipPath>
</defs>
</svg>
