<svg width="64" height="58" viewBox="0 0 64 58" fill="none" xmlns="http://www.w3.org/2000/svg">
<path d="M51.874 0.750488V4.50064H60.2499V12.8765H64V0.750488H51.874Z" fill="white"/>
<path d="M3.75015 4.50064H12.126V0.750488H0V12.8765H3.75015V4.50064Z" fill="white"/>
<path d="M60.2499 53.4994H51.874V57.2495H64V45.1235H60.2499V53.4994Z" fill="white"/>
<path d="M3.75015 45.1235H0V57.2495H12.126V53.4994H3.75015V45.1235Z" fill="white"/>
<path d="M59.6253 30.2738L60.7847 29.0075L59.6253 27.7412C55.1328 22.8349 50.5558 19.0917 46.0214 16.6156C41.3899 14.0866 36.6734 12.8042 32.003 12.8042C27.3328 12.8042 22.6162 14.0865 17.9847 16.6156C13.4504 19.0917 8.87329 22.8349 4.38086 27.7412L3.22144 29.0075L4.38086 30.2738C8.87329 35.1801 13.4504 38.9233 17.9847 41.3994C22.6162 43.9283 27.3327 45.2108 32.003 45.2108C36.6733 45.2108 41.3899 43.9285 46.0214 41.3994C50.5559 38.9233 55.1328 35.1801 59.6253 30.2738ZM32.0016 41.4102C25.1627 41.4102 19.5987 35.8464 19.5987 29.0075C19.5987 22.1686 25.1627 16.6047 32.0016 16.6047C38.8405 16.6047 44.4045 22.1686 44.4045 29.0075C44.4045 35.8464 38.8405 41.4102 32.0016 41.4102ZM8.33415 29.0075C11.5599 25.6502 14.8013 22.9517 18.0058 20.9499C16.6342 23.323 15.8486 26.0751 15.8486 29.0075C15.8486 31.9399 16.6342 34.692 18.0058 37.0651C14.8013 35.0632 11.5599 32.3649 8.33415 29.0075ZM45.9957 37.0681C47.3683 34.6943 48.1547 31.9411 48.1547 29.0075C48.1547 26.0739 47.3683 23.3206 45.9957 20.9469C49.2018 22.9491 52.4448 25.6485 55.6722 29.0075C52.4447 32.3665 49.2017 35.0659 45.9957 37.0681Z" fill="white"/>
<path d="M32.0017 22.9412C28.6568 22.9412 25.9355 25.6624 25.9355 29.0073C25.9355 32.3522 28.6569 35.0735 32.0017 35.0735C35.3464 35.0735 38.0678 32.3522 38.0678 29.0073C38.0678 25.6624 35.3466 22.9412 32.0017 22.9412ZM32.0017 31.3234C30.7246 31.3234 29.6857 30.2843 29.6857 29.0073C29.6857 27.7302 30.7247 26.6913 32.0017 26.6913C33.2786 26.6913 34.3176 27.7304 34.3176 29.0073C34.3176 30.2843 33.2787 31.3234 32.0017 31.3234Z" fill="white"/>
</svg>
