<svg width="64" height="64" viewBox="0 0 64 64" fill="none" xmlns="http://www.w3.org/2000/svg">
<path d="M4.12891 57.8066H6.19342V59.8712H4.12891V57.8066Z" fill="white"/>
<path d="M12.3872 57.8066H14.4517V59.8712H12.3872V57.8066Z" fill="white"/>
<path d="M16.5161 57.8066H18.5806V59.8712H16.5161V57.8066Z" fill="white"/>
<path d="M8.2583 57.8066H10.3228V59.8712H8.2583V57.8066Z" fill="white"/>
<path d="M49.5483 53.6772H51.6129V55.7418H49.5483V53.6772Z" fill="white"/>
<path d="M37.1611 53.6772H39.2256V55.7418H37.1611V53.6772Z" fill="white"/>
<path d="M45.4194 53.6772H47.4839V55.7418H45.4194V53.6772Z" fill="white"/>
<path d="M41.2905 53.6772H43.355V55.7418H41.2905V53.6772Z" fill="white"/>
<path d="M61.9355 35.0968H43.3548C42.2163 35.0968 41.2903 36.0227 41.2903 37.1613V39.2258H18.5806C18.0119 39.2258 17.5484 38.7623 17.5484 38.1935V32.9796C25.8302 32.4635 32.4645 25.8302 32.9796 17.5484H46.8449L49.9417 23.7419H63.6046L59.9917 16.5161L63.6046 9.29032H49.9427L46.8459 15.4839H32.9796C32.4428 6.85832 25.2748 0 16.5161 0C7.40955 0 0 7.40955 0 16.5161C0 25.2748 6.85832 32.4428 15.4839 32.9796V38.1935C15.4839 39.9009 16.8733 41.2903 18.5806 41.2903H26.8387V47.4839H13.4194C11.712 47.4839 10.3226 48.8733 10.3226 50.5806V53.6774H2.06452C0.925935 53.6774 0 54.6034 0 55.7419V61.9355C0 63.0741 0.925935 64 2.06452 64H20.6452C21.7837 64 22.7097 63.0741 22.7097 61.9355V55.7419C22.7097 54.6034 21.7837 53.6774 20.6452 53.6774H12.3871V50.5806C12.3871 50.0119 12.8506 49.5484 13.4194 49.5484H26.8387V52.6452C26.8387 54.3525 28.2281 55.7419 29.9355 55.7419H33.0323V57.8064C33.0323 58.945 33.9582 59.871 35.0968 59.871H53.6774C54.816 59.871 55.7419 58.945 55.7419 57.8064V51.6129C55.7419 50.4743 54.816 49.5484 53.6774 49.5484H35.0968C33.9582 49.5484 33.0323 50.4743 33.0323 51.6129V53.6774H29.9355C29.3667 53.6774 28.9032 53.2139 28.9032 52.6452V41.2903H41.2903V43.3548C41.2903 44.4934 42.2163 45.4194 43.3548 45.4194H61.9355C63.0741 45.4194 64 44.4934 64 43.3548V37.1613C64 36.0227 63.0741 35.0968 61.9355 35.0968V35.0968ZM51.2186 11.3548H60.2653L57.6846 16.5161L60.2653 21.6774H51.2186L49.1541 17.5484H54.7097V15.4839H49.1541L51.2186 11.3548ZM2.06452 16.5161C2.06452 8.5471 8.5471 2.06452 16.5161 2.06452C24.1363 2.06452 30.3825 7.9969 30.9151 15.4839H28.8506C28.3231 9.13652 22.9977 4.12903 16.5161 4.12903C9.68568 4.12903 4.12903 9.68568 4.12903 16.5161C4.12903 23.3466 9.68568 28.9032 16.5161 28.9032C22.9977 28.9032 28.3231 23.8957 28.8506 17.5484H30.9151C30.3825 25.0354 24.1363 30.9677 16.5161 30.9677C8.5471 30.9677 2.06452 24.4852 2.06452 16.5161ZM22.6168 15.4839C22.1234 12.5595 19.5799 10.3226 16.5161 10.3226C13.1004 10.3226 10.3226 13.1004 10.3226 16.5161C10.3226 19.9319 13.1004 22.7097 16.5161 22.7097C19.5788 22.7097 22.1223 20.4728 22.6168 17.5484H26.7871C26.2679 22.7572 21.8601 26.8387 16.5172 26.8387C10.8253 26.8387 6.19458 22.208 6.19458 16.5161C6.19458 10.8243 10.8243 6.19355 16.5161 6.19355C21.8601 6.19355 26.2668 10.2751 26.7861 15.4839H22.6168ZM20.4986 17.5484C20.0372 19.3239 18.4341 20.6452 16.5161 20.6452C14.239 20.6452 12.3871 18.7933 12.3871 16.5161C12.3871 14.239 14.239 12.3871 16.5161 12.3871C18.4341 12.3871 20.0372 13.7084 20.4986 15.4839H16.5161V17.5484H20.4986ZM20.6462 61.9355H2.06452V55.7419H20.6452L20.6462 61.9355ZM35.0968 51.6129H53.6774L53.6784 57.8064H35.0968V51.6129ZM43.3548 43.3548V37.1613H61.9355L61.9365 43.3548H43.3548Z" fill="white"/>
<path d="M53.6772 39.2256H55.7418V41.2901H53.6772V39.2256Z" fill="white"/>
<path d="M57.8066 39.2256H59.8712V41.2901H57.8066V39.2256Z" fill="white"/>
<path d="M49.5483 39.2256H51.6129V41.2901H49.5483V39.2256Z" fill="white"/>
<path d="M45.4194 39.2256H47.4839V41.2901H45.4194V39.2256Z" fill="white"/>
</svg>
