<svg width="203" height="173" viewBox="0 0 203 173" fill="none" xmlns="http://www.w3.org/2000/svg">
<path d="M84.375 23.4688V28.1562C84.375 31.3789 86.4258 34.0156 89.3555 34.8945C112.207 41.3398 128.906 62.1406 128.906 86.75C128.906 116.633 104.59 140.656 75 140.656C45.1172 140.656 21.0938 116.633 21.0938 86.75C21.0938 62.1406 37.5 41.3398 60.3516 34.8945C63.2812 34.0156 65.625 31.3789 65.625 28.1562V23.4688C65.625 18.7812 61.2305 15.2656 56.543 16.4375C25.1953 24.6406 2.05078 53.3516 2.34375 87.3359C2.34375 127.473 34.8633 159.699 75 159.406C115.137 159.406 147.656 126.887 147.656 86.75C147.656 53.0586 124.219 24.6406 92.8711 16.4375C88.4766 15.2656 84.375 18.7812 84.375 23.4688Z" fill="#FAD62C" fill-opacity="0.3"/>
<path d="M12.5977 34.4414V35.3398C12.5977 36.4076 12.4642 37.3646 12.1973 38.2109C11.9303 39.0573 11.5462 39.7767 11.0449 40.3691C10.5436 40.9616 9.94141 41.4141 9.23828 41.7266C8.54167 42.0391 7.76042 42.1953 6.89453 42.1953C6.05469 42.1953 5.2832 42.0391 4.58008 41.7266C3.88346 41.4141 3.27799 40.9616 2.76367 40.3691C2.25586 39.7767 1.86198 39.0573 1.58203 38.2109C1.30208 37.3646 1.16211 36.4076 1.16211 35.3398V34.4414C1.16211 33.3737 1.29883 32.4199 1.57227 31.5801C1.85221 30.7337 2.24609 30.0143 2.75391 29.4219C3.26172 28.8229 3.86393 28.3672 4.56055 28.0547C5.26367 27.7422 6.03516 27.5859 6.875 27.5859C7.74089 27.5859 8.52214 27.7422 9.21875 28.0547C9.92188 28.3672 10.5241 28.8229 11.0254 29.4219C11.5332 30.0143 11.9206 30.7337 12.1875 31.5801C12.4609 32.4199 12.5977 33.3737 12.5977 34.4414ZM10.7324 35.3398V34.4219C10.7324 33.5755 10.6445 32.8268 10.4688 32.1758C10.2995 31.5247 10.0488 30.9779 9.7168 30.5352C9.38477 30.0924 8.97786 29.7572 8.49609 29.5293C8.02083 29.3014 7.48047 29.1875 6.875 29.1875C6.28906 29.1875 5.75846 29.3014 5.2832 29.5293C4.81445 29.7572 4.41081 30.0924 4.07227 30.5352C3.74023 30.9779 3.48307 31.5247 3.30078 32.1758C3.11849 32.8268 3.02734 33.5755 3.02734 34.4219V35.3398C3.02734 36.1927 3.11849 36.9479 3.30078 37.6055C3.48307 38.2565 3.74349 38.8066 4.08203 39.2559C4.42708 39.6986 4.83398 40.0339 5.30273 40.2617C5.77799 40.4896 6.30859 40.6035 6.89453 40.6035C7.50651 40.6035 8.05013 40.4896 8.52539 40.2617C9.00065 40.0339 9.40104 39.6986 9.72656 39.2559C10.0586 38.8066 10.3092 38.2565 10.4785 37.6055C10.6478 36.9479 10.7324 36.1927 10.7324 35.3398ZM23.6113 39.5586V31.4336H25.4277V42H23.6992L23.6113 39.5586ZM23.9531 37.332L24.7051 37.3125C24.7051 38.0156 24.6302 38.6667 24.4805 39.2656C24.3372 39.8581 24.1029 40.3724 23.7773 40.8086C23.4518 41.2448 23.0254 41.5866 22.498 41.834C21.9707 42.0749 21.3294 42.1953 20.5742 42.1953C20.0599 42.1953 19.5879 42.1204 19.1582 41.9707C18.735 41.821 18.3704 41.5898 18.0645 41.2773C17.7585 40.9648 17.5208 40.5579 17.3516 40.0566C17.1888 39.5553 17.1074 38.9531 17.1074 38.25V31.4336H18.9141V38.2695C18.9141 38.7448 18.9661 39.1387 19.0703 39.4512C19.181 39.7572 19.3275 40.0013 19.5098 40.1836C19.6986 40.3594 19.9069 40.4831 20.1348 40.5547C20.3691 40.6263 20.61 40.6621 20.8574 40.6621C21.6257 40.6621 22.2344 40.5156 22.6836 40.2227C23.1328 39.9232 23.4551 39.5228 23.6504 39.0215C23.8522 38.5137 23.9531 37.9505 23.9531 37.332ZM31.9883 33.0938V42H30.1816V31.4336H31.9395L31.9883 33.0938ZM35.2891 31.375L35.2793 33.0547C35.1296 33.0221 34.9863 33.0026 34.8496 32.9961C34.7194 32.9831 34.5697 32.9766 34.4004 32.9766C33.9837 32.9766 33.6159 33.0417 33.2969 33.1719C32.9779 33.3021 32.7077 33.4844 32.4863 33.7188C32.265 33.9531 32.0892 34.2331 31.959 34.5586C31.8353 34.8776 31.7539 35.2292 31.7148 35.6133L31.207 35.9062C31.207 35.2682 31.2689 34.6693 31.3926 34.1094C31.5228 33.5495 31.7214 33.0547 31.9883 32.625C32.2552 32.1888 32.5938 31.8503 33.0039 31.6094C33.4206 31.362 33.9154 31.2383 34.4883 31.2383C34.6185 31.2383 34.7682 31.2546 34.9375 31.2871C35.1068 31.3132 35.224 31.3424 35.2891 31.375ZM52.1602 37.8496V27.7812H54.0352V37.8496C54.0352 38.7871 53.8431 39.5781 53.459 40.2227C53.0749 40.8672 52.5443 41.3587 51.8672 41.6973C51.1966 42.0293 50.4251 42.1953 49.5527 42.1953C48.6803 42.1953 47.9056 42.0456 47.2285 41.7461C46.5514 41.4466 46.0208 40.9909 45.6367 40.3789C45.2526 39.7669 45.0605 38.9954 45.0605 38.0645H46.9453C46.9453 38.6634 47.056 39.1549 47.2773 39.5391C47.4987 39.9232 47.8047 40.2064 48.1953 40.3887C48.5924 40.571 49.0449 40.6621 49.5527 40.6621C50.0475 40.6621 50.4902 40.5579 50.8809 40.3496C51.278 40.1348 51.5905 39.819 51.8184 39.4023C52.0462 38.9792 52.1602 38.4616 52.1602 37.8496ZM58.4766 36.834V36.6094C58.4766 35.8477 58.5872 35.1413 58.8086 34.4902C59.0299 33.8327 59.349 33.263 59.7656 32.7812C60.1823 32.293 60.6868 31.9154 61.2793 31.6484C61.8717 31.375 62.5358 31.2383 63.2715 31.2383C64.0137 31.2383 64.681 31.375 65.2734 31.6484C65.8724 31.9154 66.3802 32.293 66.7969 32.7812C67.2201 33.263 67.5423 33.8327 67.7637 34.4902C67.985 35.1413 68.0957 35.8477 68.0957 36.6094V36.834C68.0957 37.5957 67.985 38.3021 67.7637 38.9531C67.5423 39.6042 67.2201 40.1738 66.7969 40.6621C66.3802 41.1439 65.8757 41.5215 65.2832 41.7949C64.6973 42.0618 64.0332 42.1953 63.291 42.1953C62.5488 42.1953 61.8815 42.0618 61.2891 41.7949C60.6966 41.5215 60.1888 41.1439 59.7656 40.6621C59.349 40.1738 59.0299 39.6042 58.8086 38.9531C58.5872 38.3021 58.4766 37.5957 58.4766 36.834ZM60.2832 36.6094V36.834C60.2832 37.3613 60.3451 37.8594 60.4688 38.3281C60.5924 38.7904 60.778 39.2005 61.0254 39.5586C61.2793 39.9167 61.5951 40.1999 61.9727 40.4082C62.3503 40.61 62.7897 40.7109 63.291 40.7109C63.7858 40.7109 64.2188 40.61 64.5898 40.4082C64.9674 40.1999 65.2799 39.9167 65.5273 39.5586C65.7747 39.2005 65.9603 38.7904 66.084 38.3281C66.2142 37.8594 66.2793 37.3613 66.2793 36.834V36.6094C66.2793 36.0885 66.2142 35.597 66.084 35.1348C65.9603 34.666 65.7715 34.2526 65.5176 33.8945C65.2702 33.5299 64.9577 33.2435 64.5801 33.0352C64.209 32.8268 63.7728 32.7227 63.2715 32.7227C62.7767 32.7227 62.3405 32.8268 61.9629 33.0352C61.5918 33.2435 61.2793 33.5299 61.0254 33.8945C60.778 34.2526 60.5924 34.666 60.4688 35.1348C60.3451 35.597 60.2832 36.0885 60.2832 36.6094ZM72.3516 27H74.168V39.9492L74.0117 42H72.3516V27ZM81.3066 36.6289V36.834C81.3066 37.6022 81.2155 38.3151 81.0332 38.9727C80.8509 39.6237 80.584 40.1901 80.2324 40.6719C79.8809 41.1536 79.4512 41.528 78.9434 41.7949C78.4355 42.0618 77.8529 42.1953 77.1953 42.1953C76.5247 42.1953 75.9355 42.0814 75.4277 41.8535C74.9264 41.6191 74.5033 41.2839 74.1582 40.8477C73.8132 40.4115 73.5365 39.8841 73.3281 39.2656C73.1263 38.6471 72.9863 37.9505 72.9082 37.1758V36.2773C72.9863 35.4961 73.1263 34.7962 73.3281 34.1777C73.5365 33.5592 73.8132 33.0319 74.1582 32.5957C74.5033 32.153 74.9264 31.8177 75.4277 31.5898C75.929 31.3555 76.5117 31.2383 77.1758 31.2383C77.8398 31.2383 78.429 31.3685 78.9434 31.6289C79.4577 31.8828 79.8874 32.2474 80.2324 32.7227C80.584 33.1979 80.8509 33.7676 81.0332 34.4316C81.2155 35.0892 81.3066 35.8216 81.3066 36.6289ZM79.4902 36.834V36.6289C79.4902 36.1016 79.4414 35.6068 79.3438 35.1445C79.2461 34.6758 79.0898 34.2656 78.875 33.9141C78.6602 33.556 78.377 33.276 78.0254 33.0742C77.6738 32.8659 77.2409 32.7617 76.7266 32.7617C76.2708 32.7617 75.8737 32.8398 75.5352 32.9961C75.2031 33.1523 74.9199 33.3639 74.6855 33.6309C74.4512 33.8913 74.2591 34.1908 74.1094 34.5293C73.9661 34.8613 73.8587 35.2064 73.7871 35.5645V37.918C73.8913 38.3737 74.0605 38.8132 74.2949 39.2363C74.5358 39.653 74.8548 39.9948 75.252 40.2617C75.6556 40.5286 76.1536 40.6621 76.7461 40.6621C77.2344 40.6621 77.651 40.5645 77.9961 40.3691C78.3477 40.1673 78.6309 39.8906 78.8457 39.5391C79.0671 39.1875 79.2298 38.7806 79.334 38.3184C79.4382 37.8561 79.4902 37.3613 79.4902 36.834ZM91.7441 39.1973C91.7441 38.9368 91.6855 38.696 91.5684 38.4746C91.4577 38.2467 91.2266 38.0417 90.875 37.8594C90.5299 37.6706 90.0091 37.5078 89.3125 37.3711C88.7266 37.2474 88.196 37.1009 87.7207 36.9316C87.252 36.7624 86.8516 36.5573 86.5195 36.3164C86.194 36.0755 85.9434 35.7923 85.7676 35.4668C85.5918 35.1413 85.5039 34.7604 85.5039 34.3242C85.5039 33.9076 85.5951 33.5137 85.7773 33.1426C85.9661 32.7715 86.2298 32.4427 86.5684 32.1562C86.9134 31.8698 87.3268 31.6452 87.8086 31.4824C88.2904 31.3197 88.8275 31.2383 89.4199 31.2383C90.2663 31.2383 90.9889 31.388 91.5879 31.6875C92.1868 31.987 92.6458 32.3874 92.9648 32.8887C93.2839 33.3835 93.4434 33.9336 93.4434 34.5391H91.6367C91.6367 34.2461 91.5488 33.9629 91.373 33.6895C91.2038 33.4095 90.9531 33.1784 90.6211 32.9961C90.2956 32.8138 89.8952 32.7227 89.4199 32.7227C88.9186 32.7227 88.5117 32.8008 88.1992 32.957C87.8932 33.1068 87.6686 33.2988 87.5254 33.5332C87.3887 33.7676 87.3203 34.015 87.3203 34.2754C87.3203 34.4707 87.3529 34.6465 87.418 34.8027C87.4896 34.9525 87.6133 35.0924 87.7891 35.2227C87.9648 35.3464 88.2122 35.4635 88.5312 35.5742C88.8503 35.6849 89.2572 35.7956 89.752 35.9062C90.6178 36.1016 91.3307 36.3359 91.8906 36.6094C92.4505 36.8828 92.8672 37.2181 93.1406 37.6152C93.4141 38.0124 93.5508 38.4941 93.5508 39.0605C93.5508 39.5228 93.4531 39.946 93.2578 40.3301C93.069 40.7142 92.7923 41.0462 92.4277 41.3262C92.0697 41.5996 91.64 41.8145 91.1387 41.9707C90.6439 42.1204 90.0872 42.1953 89.4688 42.1953C88.5378 42.1953 87.75 42.0293 87.1055 41.6973C86.4609 41.3652 85.9727 40.9355 85.6406 40.4082C85.3086 39.8809 85.1426 39.3242 85.1426 38.7383H86.959C86.985 39.2331 87.1283 39.627 87.3887 39.9199C87.6491 40.2064 87.9681 40.4115 88.3457 40.5352C88.7233 40.6523 89.0977 40.7109 89.4688 40.7109C89.9635 40.7109 90.377 40.6458 90.709 40.5156C91.0475 40.3854 91.3047 40.2064 91.4805 39.9785C91.6562 39.7507 91.7441 39.4902 91.7441 39.1973Z" fill="#828282"/>
<path d="M22.897 104.324H30.6489C30.5213 106.717 29.8674 108.83 28.687 110.665C27.5226 112.483 25.9036 113.91 23.8301 114.947C21.7565 115.968 19.2922 116.479 16.437 116.479C14.1561 116.479 12.1144 116.088 10.312 115.306C8.5096 114.525 6.97835 113.408 5.71826 111.957C4.47412 110.489 3.51709 108.727 2.84717 106.669C2.1932 104.595 1.86621 102.259 1.86621 99.6587V97.5293C1.86621 94.9294 2.20915 92.5926 2.89502 90.519C3.58089 88.4455 4.56185 86.675 5.83789 85.2075C7.11393 83.7401 8.64518 82.6156 10.4316 81.834C12.2181 81.0524 14.2119 80.6616 16.4131 80.6616C19.3799 80.6616 21.8841 81.196 23.9258 82.2646C25.9674 83.3333 27.5465 84.8008 28.6631 86.667C29.7956 88.5332 30.4735 90.6626 30.6968 93.0552H22.9209C22.8571 91.6994 22.6019 90.5589 22.1553 89.6338C21.7087 88.6927 21.0228 87.9829 20.0977 87.5044C19.1725 87.0259 17.9443 86.7866 16.4131 86.7866C15.2965 86.7866 14.3156 86.994 13.4702 87.4087C12.6408 87.8234 11.9469 88.4694 11.3887 89.3467C10.8464 90.224 10.4396 91.3405 10.1685 92.6963C9.8973 94.0361 9.76172 95.6312 9.76172 97.4814V99.6587C9.76172 101.493 9.88135 103.08 10.1206 104.42C10.3599 105.76 10.7427 106.868 11.269 107.746C11.8114 108.623 12.5052 109.277 13.3506 109.708C14.196 110.138 15.2248 110.354 16.437 110.354C17.8247 110.354 18.9811 110.138 19.9062 109.708C20.8314 109.261 21.5412 108.591 22.0356 107.698C22.5301 106.805 22.8172 105.68 22.897 104.324ZM53.2062 109.827V98.7256C53.2062 97.944 53.0865 97.2741 52.8473 96.7158C52.608 96.1576 52.2332 95.7189 51.7228 95.3999C51.2123 95.0809 50.5504 94.9214 49.7369 94.9214C49.051 94.9214 48.4529 95.041 47.9425 95.2803C47.448 95.5195 47.0652 95.8625 46.794 96.3091C46.5388 96.7557 46.4112 97.306 46.4112 97.96H38.9464C38.9464 96.7956 39.2096 95.7109 39.7359 94.7061C40.2623 93.7012 41.012 92.8159 41.985 92.0503C42.9739 91.2847 44.1542 90.6945 45.526 90.2798C46.8977 89.8491 48.4369 89.6338 50.1437 89.6338C52.1694 89.6338 53.9718 89.9767 55.5509 90.6626C57.1459 91.3325 58.406 92.3454 59.3312 93.7012C60.2563 95.041 60.7188 96.7318 60.7188 98.7734V109.612C60.7188 111.175 60.8066 112.403 60.982 113.296C61.1734 114.174 61.4446 114.939 61.7955 115.593V116H54.2589C53.908 115.25 53.6448 114.325 53.4693 113.225C53.2939 112.108 53.2062 110.976 53.2062 109.827ZM54.1393 100.209L54.1871 104.324H50.4786C49.6492 104.324 48.9314 104.428 48.3253 104.635C47.7351 104.843 47.2566 105.13 46.8897 105.497C46.5229 105.847 46.2517 106.262 46.0763 106.741C45.9168 107.203 45.837 107.714 45.837 108.272C45.837 108.798 45.9646 109.277 46.2198 109.708C46.475 110.122 46.8259 110.449 47.2726 110.688C47.7192 110.928 48.2376 111.047 48.8277 111.047C49.8007 111.047 50.6301 110.856 51.316 110.473C52.0178 110.09 52.5602 109.628 52.943 109.085C53.3258 108.527 53.5172 108.009 53.5172 107.53L55.3116 110.641C55.0245 111.279 54.6736 111.941 54.2589 112.626C53.8442 113.296 53.3178 113.926 52.6798 114.517C52.0418 115.091 51.2682 115.561 50.359 115.928C49.4658 116.295 48.3891 116.479 47.129 116.479C45.5021 116.479 44.0266 116.152 42.7027 115.498C41.3788 114.828 40.3181 113.91 39.5206 112.746C38.739 111.582 38.3482 110.242 38.3482 108.727C38.3482 107.371 38.5955 106.167 39.0899 105.114C39.5844 104.061 40.3261 103.168 41.315 102.434C42.3199 101.7 43.58 101.15 45.0953 100.783C46.6106 100.4 48.3811 100.209 50.4068 100.209H54.1393ZM78.0124 96.1416V116H70.5476V90.1123H77.5578L78.0124 96.1416ZM85.7404 89.9209L85.6208 96.8833C85.3018 96.8354 84.8871 96.7956 84.3767 96.7637C83.8662 96.7158 83.4276 96.6919 83.0607 96.6919C82.1037 96.6919 81.2743 96.8115 80.5725 97.0508C79.8866 97.2741 79.3124 97.609 78.8498 98.0557C78.4032 98.5023 78.0682 99.0605 77.8449 99.7305C77.6216 100.384 77.51 101.142 77.51 102.003L76.0983 101.31C76.0983 99.6029 76.2658 98.0397 76.6008 96.6201C76.9357 95.2005 77.4222 93.9723 78.0603 92.9355C78.6983 91.8828 79.4799 91.0693 80.405 90.4951C81.3301 89.9209 82.3828 89.6338 83.5632 89.6338C83.946 89.6338 84.3368 89.6577 84.7355 89.7056C85.1343 89.7534 85.4693 89.8252 85.7404 89.9209ZM105.427 116.479C103.369 116.479 101.527 116.152 99.8997 115.498C98.2728 114.844 96.893 113.942 95.7605 112.794C94.644 111.63 93.7907 110.29 93.2005 108.774C92.6103 107.259 92.3152 105.64 92.3152 103.917V103.008C92.3152 101.078 92.5864 99.2998 93.1287 97.6729C93.671 96.0459 94.4606 94.6343 95.4974 93.438C96.5501 92.2257 97.8421 91.2926 99.3733 90.6387C100.905 89.9688 102.651 89.6338 104.613 89.6338C106.447 89.6338 108.082 89.9368 109.518 90.543C110.953 91.1331 112.166 91.9865 113.155 93.103C114.144 94.2036 114.893 95.5355 115.404 97.0986C115.93 98.6458 116.193 100.384 116.193 102.314V105.377H95.3299V100.568H108.872V99.9937C108.872 99.0845 108.704 98.2869 108.369 97.6011C108.05 96.9152 107.572 96.3888 106.934 96.022C106.312 95.6392 105.522 95.4478 104.565 95.4478C103.656 95.4478 102.898 95.6392 102.292 96.022C101.686 96.4048 101.2 96.9471 100.833 97.6489C100.482 98.3348 100.227 99.1403 100.067 100.065C99.9077 100.975 99.8279 101.956 99.8279 103.008V103.917C99.8279 104.922 99.9635 105.84 100.235 106.669C100.506 107.498 100.905 108.208 101.431 108.798C101.957 109.389 102.595 109.851 103.345 110.186C104.095 110.521 104.948 110.688 105.905 110.688C107.085 110.688 108.21 110.465 109.279 110.019C110.347 109.556 111.272 108.838 112.054 107.865L115.547 111.861C115.021 112.626 114.279 113.368 113.322 114.086C112.381 114.788 111.248 115.362 109.925 115.809C108.601 116.255 107.101 116.479 105.427 116.479ZM136.932 116.479C134.874 116.479 133.032 116.152 131.405 115.498C129.778 114.844 128.399 113.942 127.266 112.794C126.149 111.63 125.296 110.29 124.706 108.774C124.116 107.259 123.821 105.64 123.821 103.917V103.008C123.821 101.078 124.092 99.2998 124.634 97.6729C125.176 96.0459 125.966 94.6343 127.003 93.438C128.056 92.2257 129.348 91.2926 130.879 90.6387C132.41 89.9688 134.157 89.6338 136.119 89.6338C137.953 89.6338 139.588 89.9368 141.023 90.543C142.459 91.1331 143.671 91.9865 144.66 93.103C145.649 94.2036 146.399 95.5355 146.909 97.0986C147.435 98.6458 147.699 100.384 147.699 102.314V105.377H126.835V100.568H140.377V99.9937C140.377 99.0845 140.21 98.2869 139.875 97.6011C139.556 96.9152 139.077 96.3888 138.439 96.022C137.817 95.6392 137.028 95.4478 136.071 95.4478C135.162 95.4478 134.404 95.6392 133.798 96.022C133.192 96.4048 132.705 96.9471 132.338 97.6489C131.987 98.3348 131.732 99.1403 131.573 100.065C131.413 100.975 131.333 101.956 131.333 103.008V103.917C131.333 104.922 131.469 105.84 131.74 106.669C132.011 107.498 132.41 108.208 132.936 108.798C133.463 109.389 134.101 109.851 134.85 110.186C135.6 110.521 136.454 110.688 137.411 110.688C138.591 110.688 139.715 110.465 140.784 110.019C141.853 109.556 142.778 108.838 143.559 107.865L147.053 111.861C146.526 112.626 145.785 113.368 144.828 114.086C143.886 114.788 142.754 115.362 141.43 115.809C140.106 116.255 138.607 116.479 136.932 116.479ZM163.724 96.1416V116H156.259V90.1123H163.27L163.724 96.1416ZM171.452 89.9209L171.333 96.8833C171.014 96.8354 170.599 96.7956 170.088 96.7637C169.578 96.7158 169.139 96.6919 168.772 96.6919C167.815 96.6919 166.986 96.8115 166.284 97.0508C165.598 97.2741 165.024 97.609 164.562 98.0557C164.115 98.5023 163.78 99.0605 163.557 99.7305C163.333 100.384 163.222 101.142 163.222 102.003L161.81 101.31C161.81 99.6029 161.978 98.0397 162.312 96.6201C162.647 95.2005 163.134 93.9723 163.772 92.9355C164.41 91.8828 165.192 91.0693 166.117 90.4951C167.042 89.9209 168.095 89.6338 169.275 89.6338C169.658 89.6338 170.049 89.6577 170.447 89.7056C170.846 89.7534 171.181 89.8252 171.452 89.9209ZM193.196 108.798C193.196 108.32 193.044 107.897 192.741 107.53C192.454 107.163 191.928 106.828 191.162 106.525C190.413 106.222 189.352 105.919 187.98 105.616C186.688 105.345 185.484 104.994 184.367 104.563C183.251 104.117 182.278 103.583 181.448 102.96C180.619 102.322 179.973 101.573 179.51 100.711C179.048 99.8341 178.816 98.8372 178.816 97.7207C178.816 96.6361 179.048 95.6073 179.51 94.6343C179.989 93.6613 180.675 92.8 181.568 92.0503C182.477 91.3006 183.578 90.7104 184.87 90.2798C186.178 89.8491 187.661 89.6338 189.32 89.6338C191.601 89.6338 193.571 89.9927 195.23 90.7104C196.888 91.4123 198.164 92.4012 199.058 93.6772C199.951 94.9373 200.398 96.3809 200.398 98.0078H192.933C192.933 97.3379 192.805 96.7557 192.55 96.2612C192.295 95.7668 191.904 95.384 191.378 95.1128C190.851 94.8257 190.157 94.6821 189.296 94.6821C188.626 94.6821 188.036 94.8018 187.525 95.041C187.031 95.2643 186.64 95.5754 186.353 95.9741C186.082 96.3729 185.946 96.8354 185.946 97.3618C185.946 97.7287 186.026 98.0636 186.186 98.3667C186.361 98.6538 186.624 98.925 186.975 99.1802C187.342 99.4194 187.813 99.6348 188.387 99.8262C188.977 100.018 189.695 100.201 190.54 100.376C192.343 100.711 193.985 101.182 195.469 101.788C196.968 102.394 198.164 103.232 199.058 104.3C199.967 105.369 200.421 106.781 200.421 108.535C200.421 109.684 200.158 110.736 199.632 111.693C199.122 112.65 198.38 113.488 197.407 114.206C196.434 114.923 195.269 115.482 193.914 115.88C192.558 116.279 191.027 116.479 189.32 116.479C186.879 116.479 184.814 116.04 183.123 115.163C181.432 114.285 180.156 113.185 179.295 111.861C178.45 110.521 178.027 109.149 178.027 107.746H185.037C185.069 108.607 185.284 109.309 185.683 109.851C186.098 110.393 186.632 110.792 187.286 111.047C187.94 111.287 188.674 111.406 189.487 111.406C190.301 111.406 190.979 111.295 191.521 111.071C192.063 110.848 192.478 110.545 192.765 110.162C193.052 109.763 193.196 109.309 193.196 108.798Z" fill="#828282"/>
</svg>
