<svg width="62" height="62" viewBox="0 0 62 62" fill="none" xmlns="http://www.w3.org/2000/svg">
<path d="M61.3419 45.9139C60.4401 44.1782 58.4425 43.3636 56.5807 43.9842L43.5383 48.3188C43.5965 48.0473 43.6256 47.766 43.6256 47.4751C43.6256 45.6036 42.1031 44.0812 40.2316 44.0812H31.388C30.4474 44.0812 29.5359 43.7903 28.7698 43.2376L19.6159 36.6436C18.5977 35.9163 17.405 35.5285 16.154 35.5285H12.8086V34.9757C12.8086 33.0267 11.228 31.446 9.27889 31.446H3.75162C1.80253 31.446 0.221924 33.0267 0.221924 34.9757V50.8594C0.221924 51.257 0.551621 51.5867 0.949197 51.5867C1.34677 51.5867 1.67647 51.257 1.67647 50.8594V34.9757C1.67647 33.8315 2.60738 32.9006 3.75162 32.9006H9.2692C10.4134 32.9006 11.3443 33.8315 11.3443 34.9757V55.4654C11.3443 56.6097 10.4134 57.5406 9.2692 57.5406H3.75162C2.60738 57.5406 1.67647 56.6097 1.67647 55.4654V54.0109C1.67647 53.6133 1.34677 53.2836 0.949197 53.2836C0.551621 53.2836 0.221924 53.6133 0.221924 54.0109V55.4654C0.221924 57.4145 1.80253 58.9951 3.75162 58.9951H9.2692C11.2183 58.9951 12.7989 57.4145 12.7989 55.4654V54.137H14.6704C15.3492 54.137 16.0183 54.3212 16.6098 54.6606L27.5286 61.0024C28.3528 61.4776 29.274 61.72 30.1953 61.72C30.8159 61.72 31.4268 61.6133 32.028 61.3903L54.7286 53.08C55.1068 52.9442 55.3007 52.5273 55.165 52.1491C55.0292 51.7709 54.6122 51.577 54.234 51.7127L31.5334 60.023C30.4571 60.4206 29.2643 60.3139 28.2656 59.7321L17.3468 53.4C16.5322 52.9248 15.611 52.6824 14.6801 52.6824H12.8086V36.9733H16.154C17.0947 36.9733 18.0062 37.2642 18.7722 37.817L27.9262 44.4109C28.9443 45.1382 30.1371 45.526 31.388 45.526H40.2316C41.2983 45.526 42.171 46.3988 42.171 47.4654C42.171 47.9891 42.0159 48.5515 41.6571 48.9394L40.3189 49.3854L28.7795 49.4048C28.3722 49.4048 28.0522 49.7345 28.0522 50.1321C28.0522 50.5297 28.3819 50.8594 28.7795 50.8594L40.3383 50.84H40.3965H40.5613C41.2789 50.84 41.9092 50.617 42.4037 50.2194L57.0365 45.3612C58.2098 44.9733 59.4801 45.4873 60.0425 46.583C60.3722 47.223 60.411 47.9697 60.1589 48.6388C59.8971 49.3079 59.3637 49.8315 58.6947 50.0836L56.8716 50.7527C56.4934 50.8885 56.2995 51.3054 56.4353 51.6836C56.5419 51.9745 56.8231 52.1588 57.114 52.1588C57.2013 52.1588 57.2789 52.1491 57.3662 52.1103L59.1892 51.4412C60.2559 51.0533 61.0995 50.2194 61.5068 49.1624C61.914 48.1054 61.8656 46.9224 61.3419 45.9139Z" fill="white"/>
<path d="M37.7881 3.67397C38.1856 3.67397 38.5153 3.34427 38.5153 2.9467V1.0073C38.5153 0.609726 38.1856 0.280029 37.7881 0.280029C37.3905 0.280029 37.0608 0.609726 37.0608 1.0073V2.9467C37.0608 3.34427 37.3808 3.67397 37.7881 3.67397Z" fill="white"/>
<path d="M32.1249 4.07157C32.2315 4.36248 32.5127 4.54673 32.8134 4.54673C32.8909 4.54673 32.9782 4.53703 33.0655 4.49824C33.4437 4.36248 33.6376 3.94551 33.5018 3.56733L32.8424 1.7443C32.7067 1.36612 32.2897 1.17218 31.9115 1.30794C31.5334 1.4437 31.3394 1.86067 31.4752 2.23885L32.1249 4.07157Z" fill="white"/>
<path d="M27.8777 6.81588C28.0232 6.99043 28.2268 7.0777 28.4304 7.0777C28.5953 7.0777 28.7601 7.01952 28.8959 6.90316C29.2062 6.64134 29.245 6.18558 28.9832 5.87528L27.7323 4.39164C27.4704 4.08134 27.0147 4.04255 26.7044 4.30437C26.3941 4.56619 26.3553 5.02194 26.6171 5.33225L27.8777 6.81588Z" fill="white"/>
<path d="M23.1455 9.87992L24.823 10.8496C24.9394 10.9175 25.0655 10.9466 25.1818 10.9466C25.434 10.9466 25.6764 10.8205 25.8121 10.5781C26.0158 10.229 25.8897 9.78295 25.5503 9.58901L23.8727 8.61931C23.5236 8.41568 23.0776 8.54174 22.8836 8.88113C22.68 9.23022 22.7964 9.67628 23.1455 9.87992Z" fill="white"/>
<path d="M50.7432 24.1347C50.3941 23.9311 49.948 24.0571 49.7541 24.3965C49.5504 24.7456 49.6765 25.1917 50.0159 25.3856L51.6935 26.3553C51.8098 26.4232 51.9359 26.4523 52.0523 26.4523C52.3044 26.4523 52.5468 26.3262 52.6826 26.0838C52.8862 25.7347 52.7601 25.2886 52.4207 25.0947L50.7432 24.1347Z" fill="white"/>
<path d="M21.4291 15.3492L23.3394 15.6886C23.3782 15.6983 23.4267 15.6983 23.4655 15.6983C23.8146 15.6983 24.1152 15.4461 24.1831 15.0971C24.2509 14.6995 23.9891 14.3213 23.5915 14.2534L21.6812 13.914C21.2837 13.8461 20.9055 14.108 20.8376 14.5055C20.7697 14.9031 21.0315 15.2716 21.4291 15.3492Z" fill="white"/>
<path d="M54.0207 21.0801C54.3698 21.0801 54.6704 20.828 54.7382 20.4789C54.8061 20.0813 54.5443 19.7031 54.1467 19.6353L52.2364 19.2959C51.8388 19.228 51.4607 19.4898 51.3928 19.8874C51.3249 20.285 51.5867 20.6631 51.9843 20.731L53.8946 21.0704C53.9334 21.0801 53.9819 21.0801 54.0207 21.0801Z" fill="white"/>
<path d="M21.5552 21.0801C21.594 21.0801 21.6425 21.0801 21.6812 21.0704L23.5915 20.731C23.9891 20.6631 24.2509 20.285 24.1831 19.8874C24.1152 19.4898 23.737 19.228 23.3394 19.2959L21.4291 19.6353C21.0315 19.7031 20.7697 20.0813 20.8376 20.4789C20.8958 20.8377 21.2061 21.0801 21.5552 21.0801Z" fill="white"/>
<path d="M51.3928 15.0873C51.451 15.4364 51.7613 15.6885 52.1104 15.6885C52.1491 15.6885 52.1976 15.6885 52.2364 15.6788L54.1467 15.3394C54.5443 15.2715 54.8061 14.8933 54.7382 14.4958C54.6704 14.0982 54.2922 13.8364 53.8946 13.9043L51.9843 14.2437C51.5867 14.3212 51.3249 14.6994 51.3928 15.0873Z" fill="white"/>
<path d="M24.823 24.1345L23.1455 25.1042C22.7964 25.3078 22.68 25.7539 22.8836 26.0933C23.0194 26.326 23.2618 26.4618 23.514 26.4618C23.64 26.4618 23.7661 26.4327 23.8727 26.3648L25.5503 25.3951C25.8994 25.1915 26.0158 24.7454 25.8121 24.406C25.6085 24.0666 25.1721 23.9309 24.823 24.1345Z" fill="white"/>
<path d="M50.3843 10.9466C50.5104 10.9466 50.6364 10.9175 50.7431 10.8496L52.4207 9.87992C52.7698 9.67628 52.8861 9.23022 52.6825 8.89083C52.4789 8.54174 52.0425 8.42537 51.6934 8.62901L50.0158 9.59871C49.6667 9.80234 49.5504 10.2484 49.754 10.5878C49.8898 10.8108 50.1322 10.9466 50.3843 10.9466Z" fill="white"/>
<path d="M47.1358 7.0777C47.3395 7.0777 47.5528 6.99043 47.6886 6.81588L48.9395 5.33225C49.2013 5.02194 49.1625 4.56619 48.8522 4.30437C48.5419 4.04255 48.0861 4.08134 47.8243 4.39164L46.5734 5.88497C46.3116 6.19528 46.3504 6.65103 46.6607 6.91285C46.8061 7.01952 46.971 7.0777 47.1358 7.0777Z" fill="white"/>
<path d="M42.5105 4.50783C42.588 4.53692 42.6753 4.55632 42.7626 4.55632C43.0632 4.55632 43.3347 4.37207 43.4511 4.08116L44.1105 2.25813C44.2462 1.87995 44.0523 1.46298 43.6741 1.32723C43.2959 1.19147 42.879 1.38541 42.7432 1.76359L42.0838 3.58662C41.9384 3.9551 42.1323 4.37207 42.5105 4.50783Z" fill="white"/>
<path d="M25.4244 17.2692C25.3662 20.7407 26.7044 23.9795 29.2062 26.3843C31.1069 28.2171 32.2026 30.7674 32.2123 33.3662C31.0972 33.6862 30.2729 34.7043 30.2729 35.9165C30.2729 37.3904 31.4656 38.5831 32.9396 38.5831H33.4826C33.2984 38.9516 33.182 39.3589 33.182 39.7952C33.182 41.2692 34.3747 42.4619 35.8487 42.4619H39.7275C41.2014 42.4619 42.3941 41.2692 42.3941 39.7952C42.3941 39.3589 42.2778 38.9516 42.0935 38.5831H42.6365C44.1105 38.5831 45.3032 37.3904 45.3032 35.9165C45.3032 34.7043 44.479 33.6862 43.3638 33.3662C43.3735 30.9807 44.3335 28.6243 46.0693 26.7043C46.3408 26.4037 46.3117 25.948 46.0208 25.6765C45.7202 25.4049 45.2644 25.434 44.9929 25.7249C43.0438 27.8777 41.9578 30.5443 41.919 33.2498H38.5153V23.9892C41.7735 23.7565 44.799 21.9819 47.0972 18.8983C47.2911 18.6365 47.2911 18.2874 47.0972 18.0256C44.6244 14.7092 41.3178 12.8862 37.7881 12.8862C34.2584 12.8862 30.9517 14.7092 28.479 18.0256C28.285 18.2874 28.285 18.6365 28.479 18.8983C30.7772 21.9819 33.8026 23.7565 37.0608 23.9892V33.2498H33.6572C33.6184 30.2922 32.3772 27.4122 30.2147 25.3371C28.0135 23.2134 26.8208 20.3528 26.879 17.2983C26.9759 11.6256 31.6693 6.82555 37.3323 6.60252C40.3384 6.47646 43.1796 7.55282 45.342 9.63767C47.5044 11.7128 48.6972 14.5056 48.6972 17.5019C48.6972 19.6546 48.0669 21.7395 46.8838 23.5237C46.6608 23.8534 46.7481 24.3092 47.0875 24.5322C47.4269 24.7553 47.8729 24.668 48.0959 24.3286C49.4438 22.3019 50.1517 19.9456 50.1517 17.5019C50.1517 14.108 48.8038 10.9371 46.3505 8.5807C43.8972 6.22434 40.6875 5.01222 37.2741 5.14798C30.8547 5.4001 25.5408 10.8401 25.4244 17.2692ZM29.982 18.4619C32.125 15.7952 34.879 14.3407 37.7881 14.3407C40.6972 14.3407 43.4511 15.7952 45.5941 18.4619C43.4511 21.1189 40.6972 22.5831 37.7881 22.5831C34.879 22.5831 32.125 21.1189 29.982 18.4619ZM40.9396 39.7952C40.9396 40.4643 40.3965 41.0074 39.7275 41.0074H35.8487C35.1796 41.0074 34.6365 40.4643 34.6365 39.7952C34.6365 39.1262 35.1796 38.5831 35.8487 38.5831H39.7275C40.3965 38.5831 40.9396 39.1262 40.9396 39.7952ZM43.8487 35.9165C43.8487 36.5856 43.3056 37.1286 42.6365 37.1286H39.7275H35.8487H32.9396C32.2705 37.1286 31.7275 36.5856 31.7275 35.9165C31.7275 35.2474 32.2705 34.7043 32.9396 34.7043H42.6365C43.3056 34.7043 43.8487 35.2474 43.8487 35.9165Z" fill="white"/>
<path d="M40.6971 18.4618C40.6971 18.1903 40.6486 17.9382 40.5807 17.6958C40.3383 17.8703 40.0474 17.977 39.7274 17.977C38.9225 17.977 38.2728 17.3273 38.2728 16.5224C38.2728 16.2024 38.3795 15.9115 38.5541 15.6691C38.3116 15.6012 38.0498 15.5527 37.788 15.5527C36.1783 15.5527 34.8789 16.8521 34.8789 18.4618C34.8789 20.0715 36.1783 21.3709 37.788 21.3709C39.3977 21.3709 40.6971 20.0715 40.6971 18.4618Z" fill="white"/>
</svg>
