<svg width="246" height="173" viewBox="0 0 246 173" fill="none" xmlns="http://www.w3.org/2000/svg">
<path d="M84.375 23.4688V28.1562C84.375 31.3789 86.4258 34.0156 89.3555 34.8945C112.207 41.3398 128.906 62.1406 128.906 86.75C128.906 116.633 104.59 140.656 75 140.656C45.1172 140.656 21.0938 116.633 21.0938 86.75C21.0938 62.1406 37.5 41.3398 60.3516 34.8945C63.2812 34.0156 65.625 31.3789 65.625 28.1562V23.4688C65.625 18.7812 61.2305 15.2656 56.543 16.4375C25.1953 24.6406 2.05078 53.3516 2.34375 87.3359C2.34375 127.473 34.8633 159.699 75 159.406C115.137 159.406 147.656 126.887 147.656 86.75C147.656 53.0586 124.219 24.6406 92.8711 16.4375C88.4766 15.2656 84.375 18.7812 84.375 23.4688Z" fill="#FAD62C" fill-opacity="0.3"/>
<path d="M10.9375 33.8945V35.4277H3.24219V33.8945H10.9375ZM3.53516 27.7812V42H1.65039V27.7812H3.53516ZM12.5781 27.7812V42H10.7031V27.7812H12.5781ZM17.1758 36.834V36.6094C17.1758 35.8477 17.2865 35.1413 17.5078 34.4902C17.7292 33.8327 18.0482 33.263 18.4648 32.7812C18.8815 32.293 19.3861 31.9154 19.9785 31.6484C20.571 31.375 21.235 31.2383 21.9707 31.2383C22.7129 31.2383 23.3802 31.375 23.9727 31.6484C24.5716 31.9154 25.0794 32.293 25.4961 32.7812C25.9193 33.263 26.2415 33.8327 26.4629 34.4902C26.6842 35.1413 26.7949 35.8477 26.7949 36.6094V36.834C26.7949 37.5957 26.6842 38.3021 26.4629 38.9531C26.2415 39.6042 25.9193 40.1738 25.4961 40.6621C25.0794 41.1439 24.5749 41.5215 23.9824 41.7949C23.3965 42.0618 22.7324 42.1953 21.9902 42.1953C21.248 42.1953 20.5807 42.0618 19.9883 41.7949C19.3958 41.5215 18.888 41.1439 18.4648 40.6621C18.0482 40.1738 17.7292 39.6042 17.5078 38.9531C17.2865 38.3021 17.1758 37.5957 17.1758 36.834ZM18.9824 36.6094V36.834C18.9824 37.3613 19.0443 37.8594 19.168 38.3281C19.2917 38.7904 19.4772 39.2005 19.7246 39.5586C19.9785 39.9167 20.2943 40.1999 20.6719 40.4082C21.0495 40.61 21.4889 40.7109 21.9902 40.7109C22.485 40.7109 22.918 40.61 23.2891 40.4082C23.6667 40.1999 23.9792 39.9167 24.2266 39.5586C24.474 39.2005 24.6595 38.7904 24.7832 38.3281C24.9134 37.8594 24.9785 37.3613 24.9785 36.834V36.6094C24.9785 36.0885 24.9134 35.597 24.7832 35.1348C24.6595 34.666 24.4707 34.2526 24.2168 33.8945C23.9694 33.5299 23.6569 33.2435 23.2793 33.0352C22.9082 32.8268 22.472 32.7227 21.9707 32.7227C21.4759 32.7227 21.0397 32.8268 20.6621 33.0352C20.291 33.2435 19.9785 33.5299 19.7246 33.8945C19.4772 34.2526 19.2917 34.666 19.168 35.1348C19.0443 35.597 18.9824 36.0885 18.9824 36.6094ZM33.7363 40.125L36.4512 31.4336H37.6426L37.4082 33.1621L34.6445 42H33.4824L33.7363 40.125ZM31.9102 31.4336L34.2246 40.2227L34.3906 42H33.1699L30.1035 31.4336H31.9102ZM40.2402 40.1543L42.4473 31.4336H44.2441L41.1777 42H39.9668L40.2402 40.1543ZM37.9062 31.4336L40.5625 39.9785L40.8652 42H39.7129L36.8711 33.1426L36.6367 31.4336H37.9062ZM59.0742 37.7031L61.8965 27.7812H63.2637L62.4727 31.6387L59.4355 42H58.0781L59.0742 37.7031ZM56.1543 27.7812L58.4004 37.5078L59.0742 42H57.7266L54.2793 27.7812H56.1543ZM66.916 37.498L69.1133 27.7812H70.998L67.5605 42H66.2129L66.916 37.498ZM63.4688 27.7812L66.2129 37.7031L67.209 42H65.8516L62.9219 31.6387L62.1211 27.7812H63.4688ZM78.8867 42.1953C78.151 42.1953 77.4837 42.0716 76.8848 41.8242C76.2923 41.5703 75.7812 41.2155 75.3516 40.7598C74.9284 40.304 74.6029 39.7637 74.375 39.1387C74.1471 38.5137 74.0332 37.8301 74.0332 37.0879V36.6777C74.0332 35.8184 74.1602 35.0534 74.4141 34.3828C74.668 33.7057 75.013 33.1328 75.4492 32.6641C75.8854 32.1953 76.3802 31.8405 76.9336 31.5996C77.487 31.3587 78.0599 31.2383 78.6523 31.2383C79.4076 31.2383 80.0586 31.3685 80.6055 31.6289C81.1589 31.8893 81.6113 32.2539 81.9629 32.7227C82.3145 33.1849 82.5749 33.7318 82.7441 34.3633C82.9134 34.9883 82.998 35.6719 82.998 36.4141V37.2246H75.1074V35.75H81.1914V35.6133C81.1654 35.1445 81.0677 34.6888 80.8984 34.2461C80.7357 33.8034 80.4753 33.4388 80.1172 33.1523C79.7591 32.8659 79.2708 32.7227 78.6523 32.7227C78.2422 32.7227 77.8646 32.8105 77.5195 32.9863C77.1745 33.1556 76.8783 33.4095 76.6309 33.748C76.3835 34.0866 76.1914 34.5 76.0547 34.9883C75.918 35.4766 75.8496 36.0397 75.8496 36.6777V37.0879C75.8496 37.5892 75.918 38.0612 76.0547 38.5039C76.1979 38.9401 76.403 39.3242 76.6699 39.6562C76.9434 39.9883 77.2721 40.2487 77.6562 40.4375C78.0469 40.6263 78.4896 40.7207 78.9844 40.7207C79.6224 40.7207 80.1628 40.5905 80.6055 40.3301C81.0482 40.0697 81.4355 39.7214 81.7676 39.2852L82.8613 40.1543C82.6335 40.4993 82.3438 40.8281 81.9922 41.1406C81.6406 41.4531 81.2077 41.707 80.6934 41.9023C80.1855 42.0977 79.5833 42.1953 78.8867 42.1953ZM98.082 37.7031L100.904 27.7812H102.271L101.48 31.6387L98.4434 42H97.0859L98.082 37.7031ZM95.1621 27.7812L97.4082 37.5078L98.082 42H96.7344L93.2871 27.7812H95.1621ZM105.924 37.498L108.121 27.7812H110.006L106.568 42H105.221L105.924 37.498ZM102.477 27.7812L105.221 37.7031L106.217 42H104.859L101.93 31.6387L101.129 27.7812H102.477ZM113.031 36.834V36.6094C113.031 35.8477 113.142 35.1413 113.363 34.4902C113.585 33.8327 113.904 33.263 114.32 32.7812C114.737 32.293 115.242 31.9154 115.834 31.6484C116.426 31.375 117.09 31.2383 117.826 31.2383C118.568 31.2383 119.236 31.375 119.828 31.6484C120.427 31.9154 120.935 32.293 121.352 32.7812C121.775 33.263 122.097 33.8327 122.318 34.4902C122.54 35.1413 122.65 35.8477 122.65 36.6094V36.834C122.65 37.5957 122.54 38.3021 122.318 38.9531C122.097 39.6042 121.775 40.1738 121.352 40.6621C120.935 41.1439 120.43 41.5215 119.838 41.7949C119.252 42.0618 118.588 42.1953 117.846 42.1953C117.104 42.1953 116.436 42.0618 115.844 41.7949C115.251 41.5215 114.743 41.1439 114.32 40.6621C113.904 40.1738 113.585 39.6042 113.363 38.9531C113.142 38.3021 113.031 37.5957 113.031 36.834ZM114.838 36.6094V36.834C114.838 37.3613 114.9 37.8594 115.023 38.3281C115.147 38.7904 115.333 39.2005 115.58 39.5586C115.834 39.9167 116.15 40.1999 116.527 40.4082C116.905 40.61 117.344 40.7109 117.846 40.7109C118.34 40.7109 118.773 40.61 119.145 40.4082C119.522 40.1999 119.835 39.9167 120.082 39.5586C120.329 39.2005 120.515 38.7904 120.639 38.3281C120.769 37.8594 120.834 37.3613 120.834 36.834V36.6094C120.834 36.0885 120.769 35.597 120.639 35.1348C120.515 34.666 120.326 34.2526 120.072 33.8945C119.825 33.5299 119.512 33.2435 119.135 33.0352C118.764 32.8268 118.327 32.7227 117.826 32.7227C117.331 32.7227 116.895 32.8268 116.518 33.0352C116.146 33.2435 115.834 33.5299 115.58 33.8945C115.333 34.2526 115.147 34.666 115.023 35.1348C114.9 35.597 114.838 36.0885 114.838 36.6094ZM128.723 33.0938V42H126.916V31.4336H128.674L128.723 33.0938ZM132.023 31.375L132.014 33.0547C131.864 33.0221 131.721 33.0026 131.584 32.9961C131.454 32.9831 131.304 32.9766 131.135 32.9766C130.718 32.9766 130.35 33.0417 130.031 33.1719C129.712 33.3021 129.442 33.4844 129.221 33.7188C128.999 33.9531 128.824 34.2331 128.693 34.5586C128.57 34.8776 128.488 35.2292 128.449 35.6133L127.941 35.9062C127.941 35.2682 128.003 34.6693 128.127 34.1094C128.257 33.5495 128.456 33.0547 128.723 32.625C128.99 32.1888 129.328 31.8503 129.738 31.6094C130.155 31.362 130.65 31.2383 131.223 31.2383C131.353 31.2383 131.503 31.2546 131.672 31.2871C131.841 31.3132 131.958 31.3424 132.023 31.375ZM137.51 27V42H135.693V27H137.51ZM143.965 31.4336L139.355 36.3652L136.777 39.041L136.631 37.1172L138.477 34.9102L141.758 31.4336H143.965ZM142.314 42L138.545 36.9609L139.482 35.3496L144.443 42H142.314Z" fill="#828282"/>
<path d="M31.917 97.8164V99.3716C31.917 102.019 31.5501 104.396 30.8164 106.501C30.0986 108.607 29.0698 110.401 27.73 111.885C26.4061 113.368 24.827 114.509 22.9927 115.306C21.1743 116.088 19.1566 116.479 16.9395 116.479C14.7223 116.479 12.6966 116.088 10.8623 115.306C9.02799 114.509 7.43294 113.368 6.07715 111.885C4.7373 110.401 3.70052 108.607 2.9668 106.501C2.23307 104.396 1.86621 102.019 1.86621 99.3716V97.8164C1.86621 95.1686 2.23307 92.792 2.9668 90.6865C3.70052 88.5651 4.72933 86.7627 6.05322 85.2793C7.39307 83.7959 8.98014 82.6634 10.8145 81.8818C12.6488 81.0843 14.6745 80.6855 16.8916 80.6855C19.1087 80.6855 21.1344 81.0843 22.9688 81.8818C24.8031 82.6634 26.3822 83.7959 27.7061 85.2793C29.0459 86.7627 30.0827 88.5651 30.8164 90.6865C31.5501 92.792 31.917 95.1686 31.917 97.8164ZM24.0454 99.3716V97.7686C24.0454 95.998 23.8859 94.4349 23.5669 93.0791C23.2479 91.7074 22.7853 90.5589 22.1792 89.6338C21.5731 88.7087 20.8234 88.0148 19.9302 87.5522C19.0369 87.0737 18.0241 86.8345 16.8916 86.8345C15.7113 86.8345 14.6825 87.0737 13.8052 87.5522C12.9279 88.0148 12.1862 88.7087 11.5801 89.6338C10.9899 90.5589 10.5353 91.7074 10.2163 93.0791C9.91325 94.4349 9.76172 95.998 9.76172 97.7686V99.3716C9.76172 101.126 9.91325 102.689 10.2163 104.061C10.5353 105.417 10.9979 106.565 11.604 107.506C12.2101 108.447 12.9518 109.157 13.8291 109.636C14.7223 110.114 15.7591 110.354 16.9395 110.354C18.0719 110.354 19.0768 110.114 19.9541 109.636C20.8473 109.157 21.597 108.447 22.2031 107.506C22.8092 106.565 23.2638 105.417 23.5669 104.061C23.8859 102.689 24.0454 101.126 24.0454 99.3716ZM56.4122 109.755V90.1123H63.9249V116H56.8907L56.4122 109.755ZM57.2018 104.468L59.2594 104.42C59.2594 106.159 59.052 107.762 58.6373 109.229C58.2385 110.696 57.6324 111.972 56.8189 113.057C56.0214 114.142 55.0245 114.987 53.8282 115.593C52.6479 116.183 51.2682 116.479 49.6891 116.479C48.413 116.479 47.2407 116.303 46.172 115.952C45.1192 115.585 44.2101 115.019 43.4444 114.253C42.6788 113.472 42.0886 112.475 41.6739 111.263C41.2592 110.035 41.0519 108.567 41.0519 106.86V90.1123H48.5167V106.908C48.5167 107.578 48.5965 108.152 48.756 108.631C48.9314 109.093 49.1627 109.476 49.4498 109.779C49.7529 110.082 50.1197 110.306 50.5504 110.449C50.997 110.593 51.4835 110.665 52.0099 110.665C53.3338 110.665 54.3705 110.393 55.1202 109.851C55.8858 109.293 56.4202 108.551 56.7232 107.626C57.0423 106.685 57.2018 105.632 57.2018 104.468ZM81.1706 96.1416V116H73.7058V90.1123H80.716L81.1706 96.1416ZM88.8986 89.9209L88.779 96.8833C88.46 96.8354 88.0453 96.7956 87.5349 96.7637C87.0244 96.7158 86.5858 96.6919 86.2189 96.6919C85.2619 96.6919 84.4325 96.8115 83.7307 97.0508C83.0448 97.2741 82.4706 97.609 82.008 98.0557C81.5614 98.5023 81.2264 99.0605 81.0031 99.7305C80.7798 100.384 80.6682 101.142 80.6682 102.003L79.2565 101.31C79.2565 99.6029 79.424 98.0397 79.759 96.6201C80.0939 95.2005 80.5804 93.9723 81.2185 92.9355C81.8565 91.8828 82.6381 91.0693 83.5632 90.4951C84.4883 89.9209 85.5411 89.6338 86.7214 89.6338C87.1042 89.6338 87.495 89.6577 87.8938 89.7056C88.2925 89.7534 88.6275 89.8252 88.8986 89.9209ZM122.577 111.646L129.515 81.1641H133.511L135.09 84.9443L127.697 116H123.318L122.577 111.646ZM119.873 81.1641L125.687 111.789L124.682 116H119.705L112.145 81.1641H119.873ZM140.042 111.622L145.785 81.1641H153.489L145.928 116H140.999L140.042 111.622ZM136.119 81.1641L143.153 111.813L142.339 116H137.985L130.472 84.9204L132.123 81.1641H136.119ZM159.752 103.319V102.817C159.752 100.919 160.024 99.1722 160.566 97.5771C161.108 95.9661 161.906 94.5705 162.958 93.3901C164.011 92.2098 165.303 91.2926 166.834 90.6387C168.366 89.9688 170.12 89.6338 172.098 89.6338C174.108 89.6338 175.878 89.9688 177.41 90.6387C178.957 91.2926 180.257 92.2098 181.31 93.3901C182.362 94.5705 183.16 95.9661 183.702 97.5771C184.244 99.1722 184.516 100.919 184.516 102.817V103.319C184.516 105.201 184.244 106.948 183.702 108.559C183.16 110.154 182.362 111.55 181.31 112.746C180.257 113.926 178.965 114.844 177.434 115.498C175.902 116.152 174.14 116.479 172.146 116.479C170.168 116.479 168.406 116.152 166.858 115.498C165.311 114.844 164.011 113.926 162.958 112.746C161.906 111.55 161.108 110.154 160.566 108.559C160.024 106.948 159.752 105.201 159.752 103.319ZM167.241 102.817V103.319C167.241 104.34 167.321 105.297 167.48 106.19C167.656 107.084 167.935 107.865 168.318 108.535C168.701 109.205 169.203 109.731 169.825 110.114C170.463 110.481 171.237 110.665 172.146 110.665C173.055 110.665 173.821 110.481 174.443 110.114C175.065 109.731 175.567 109.205 175.95 108.535C176.333 107.865 176.604 107.084 176.764 106.19C176.939 105.297 177.027 104.34 177.027 103.319V102.817C177.027 101.812 176.939 100.871 176.764 99.9937C176.604 99.1004 176.333 98.3109 175.95 97.625C175.567 96.9391 175.057 96.4048 174.419 96.022C173.797 95.6392 173.023 95.4478 172.098 95.4478C171.205 95.4478 170.447 95.6392 169.825 96.022C169.203 96.4048 168.701 96.9391 168.318 97.625C167.935 98.3109 167.656 99.1004 167.48 99.9937C167.321 100.871 167.241 101.812 167.241 102.817ZM200.828 96.1416V116H193.363V90.1123H200.374L200.828 96.1416ZM208.556 89.9209L208.437 96.8833C208.118 96.8354 207.703 96.7956 207.192 96.7637C206.682 96.7158 206.243 96.6919 205.877 96.6919C204.92 96.6919 204.09 96.8115 203.388 97.0508C202.702 97.2741 202.128 97.609 201.666 98.0557C201.219 98.5023 200.884 99.0605 200.661 99.7305C200.437 100.384 200.326 101.142 200.326 102.003L198.914 101.31C198.914 99.6029 199.082 98.0397 199.417 96.6201C199.752 95.2005 200.238 93.9723 200.876 92.9355C201.514 91.8828 202.296 91.0693 203.221 90.4951C204.146 89.9209 205.199 89.6338 206.379 89.6338C206.762 89.6338 207.153 89.6577 207.551 89.7056C207.95 89.7534 208.285 89.8252 208.556 89.9209ZM224.031 79.2261V116H216.543V79.2261H224.031ZM240.468 90.1123L229.199 103.128L223.242 109.109L220.251 104.061L225.084 97.8164L231.472 90.1123H240.468ZM232.573 116L225.276 104.109L230.635 99.9219L241.138 116H232.573Z" fill="#828282"/>
</svg>
