<svg width="286" height="173" viewBox="0 0 286 173" fill="none" xmlns="http://www.w3.org/2000/svg">
<path d="M10.9375 33.8945V35.4277H3.24219V33.8945H10.9375ZM3.53516 27.7812V42H1.65039V27.7812H3.53516ZM12.5781 27.7812V42H10.7031V27.7812H12.5781ZM17.1758 36.834V36.6094C17.1758 35.8477 17.2865 35.1413 17.5078 34.4902C17.7292 33.8327 18.0482 33.263 18.4648 32.7812C18.8815 32.293 19.3861 31.9154 19.9785 31.6484C20.571 31.375 21.235 31.2383 21.9707 31.2383C22.7129 31.2383 23.3802 31.375 23.9727 31.6484C24.5716 31.9154 25.0794 32.293 25.4961 32.7812C25.9193 33.263 26.2415 33.8327 26.4629 34.4902C26.6842 35.1413 26.7949 35.8477 26.7949 36.6094V36.834C26.7949 37.5957 26.6842 38.3021 26.4629 38.9531C26.2415 39.6042 25.9193 40.1738 25.4961 40.6621C25.0794 41.1439 24.5749 41.5215 23.9824 41.7949C23.3965 42.0618 22.7324 42.1953 21.9902 42.1953C21.248 42.1953 20.5807 42.0618 19.9883 41.7949C19.3958 41.5215 18.888 41.1439 18.4648 40.6621C18.0482 40.1738 17.7292 39.6042 17.5078 38.9531C17.2865 38.3021 17.1758 37.5957 17.1758 36.834ZM18.9824 36.6094V36.834C18.9824 37.3613 19.0443 37.8594 19.168 38.3281C19.2917 38.7904 19.4772 39.2005 19.7246 39.5586C19.9785 39.9167 20.2943 40.1999 20.6719 40.4082C21.0495 40.61 21.4889 40.7109 21.9902 40.7109C22.485 40.7109 22.918 40.61 23.2891 40.4082C23.6667 40.1999 23.9792 39.9167 24.2266 39.5586C24.474 39.2005 24.6595 38.7904 24.7832 38.3281C24.9134 37.8594 24.9785 37.3613 24.9785 36.834V36.6094C24.9785 36.0885 24.9134 35.597 24.7832 35.1348C24.6595 34.666 24.4707 34.2526 24.2168 33.8945C23.9694 33.5299 23.6569 33.2435 23.2793 33.0352C22.9082 32.8268 22.472 32.7227 21.9707 32.7227C21.4759 32.7227 21.0397 32.8268 20.6621 33.0352C20.291 33.2435 19.9785 33.5299 19.7246 33.8945C19.4772 34.2526 19.2917 34.666 19.168 35.1348C19.0443 35.597 18.9824 36.0885 18.9824 36.6094ZM33.7363 40.125L36.4512 31.4336H37.6426L37.4082 33.1621L34.6445 42H33.4824L33.7363 40.125ZM31.9102 31.4336L34.2246 40.2227L34.3906 42H33.1699L30.1035 31.4336H31.9102ZM40.2402 40.1543L42.4473 31.4336H44.2441L41.1777 42H39.9668L40.2402 40.1543ZM37.9062 31.4336L40.5625 39.9785L40.8652 42H39.7129L36.8711 33.1426L36.6367 31.4336H37.9062ZM59.0742 37.7031L61.8965 27.7812H63.2637L62.4727 31.6387L59.4355 42H58.0781L59.0742 37.7031ZM56.1543 27.7812L58.4004 37.5078L59.0742 42H57.7266L54.2793 27.7812H56.1543ZM66.916 37.498L69.1133 27.7812H70.998L67.5605 42H66.2129L66.916 37.498ZM63.4688 27.7812L66.2129 37.7031L67.209 42H65.8516L62.9219 31.6387L62.1211 27.7812H63.4688ZM78.8867 42.1953C78.151 42.1953 77.4837 42.0716 76.8848 41.8242C76.2923 41.5703 75.7812 41.2155 75.3516 40.7598C74.9284 40.304 74.6029 39.7637 74.375 39.1387C74.1471 38.5137 74.0332 37.8301 74.0332 37.0879V36.6777C74.0332 35.8184 74.1602 35.0534 74.4141 34.3828C74.668 33.7057 75.013 33.1328 75.4492 32.6641C75.8854 32.1953 76.3802 31.8405 76.9336 31.5996C77.487 31.3587 78.0599 31.2383 78.6523 31.2383C79.4076 31.2383 80.0586 31.3685 80.6055 31.6289C81.1589 31.8893 81.6113 32.2539 81.9629 32.7227C82.3145 33.1849 82.5749 33.7318 82.7441 34.3633C82.9134 34.9883 82.998 35.6719 82.998 36.4141V37.2246H75.1074V35.75H81.1914V35.6133C81.1654 35.1445 81.0677 34.6888 80.8984 34.2461C80.7357 33.8034 80.4753 33.4388 80.1172 33.1523C79.7591 32.8659 79.2708 32.7227 78.6523 32.7227C78.2422 32.7227 77.8646 32.8105 77.5195 32.9863C77.1745 33.1556 76.8783 33.4095 76.6309 33.748C76.3835 34.0866 76.1914 34.5 76.0547 34.9883C75.918 35.4766 75.8496 36.0397 75.8496 36.6777V37.0879C75.8496 37.5892 75.918 38.0612 76.0547 38.5039C76.1979 38.9401 76.403 39.3242 76.6699 39.6562C76.9434 39.9883 77.2721 40.2487 77.6562 40.4375C78.0469 40.6263 78.4896 40.7207 78.9844 40.7207C79.6224 40.7207 80.1628 40.5905 80.6055 40.3301C81.0482 40.0697 81.4355 39.7214 81.7676 39.2852L82.8613 40.1543C82.6335 40.4993 82.3438 40.8281 81.9922 41.1406C81.6406 41.4531 81.2077 41.707 80.6934 41.9023C80.1855 42.0977 79.5833 42.1953 78.8867 42.1953ZM102.926 37.4785H104.801C104.703 38.377 104.446 39.181 104.029 39.8906C103.613 40.6003 103.023 41.1634 102.262 41.5801C101.5 41.9902 100.549 42.1953 99.4102 42.1953C98.5768 42.1953 97.8184 42.0391 97.1348 41.7266C96.4577 41.4141 95.875 40.9714 95.3867 40.3984C94.8984 39.819 94.5208 39.1257 94.2539 38.3184C93.9935 37.5046 93.8633 36.5996 93.8633 35.6035V34.1875C93.8633 33.1914 93.9935 32.2897 94.2539 31.4824C94.5208 30.6686 94.9017 29.972 95.3965 29.3926C95.8978 28.8132 96.5 28.3672 97.2031 28.0547C97.9062 27.7422 98.6973 27.5859 99.5762 27.5859C100.65 27.5859 101.559 27.7878 102.301 28.1914C103.043 28.5951 103.619 29.1549 104.029 29.8711C104.446 30.5807 104.703 31.4043 104.801 32.3418H102.926C102.835 31.6777 102.665 31.1081 102.418 30.6328C102.171 30.151 101.819 29.7799 101.363 29.5195C100.908 29.2591 100.312 29.1289 99.5762 29.1289C98.9447 29.1289 98.388 29.2493 97.9062 29.4902C97.431 29.7311 97.0306 30.0729 96.7051 30.5156C96.3861 30.9583 96.1452 31.4889 95.9824 32.1074C95.8197 32.7259 95.7383 33.4128 95.7383 34.168V35.6035C95.7383 36.3001 95.8099 36.9544 95.9531 37.5664C96.1029 38.1784 96.3275 38.7155 96.627 39.1777C96.9264 39.64 97.3073 40.0046 97.7695 40.2715C98.2318 40.5319 98.7786 40.6621 99.4102 40.6621C100.211 40.6621 100.849 40.5352 101.324 40.2812C101.799 40.0273 102.158 39.6628 102.398 39.1875C102.646 38.7122 102.822 38.1426 102.926 37.4785ZM108.617 36.834V36.6094C108.617 35.8477 108.728 35.1413 108.949 34.4902C109.171 33.8327 109.49 33.263 109.906 32.7812C110.323 32.293 110.827 31.9154 111.42 31.6484C112.012 31.375 112.676 31.2383 113.412 31.2383C114.154 31.2383 114.822 31.375 115.414 31.6484C116.013 31.9154 116.521 32.293 116.938 32.7812C117.361 33.263 117.683 33.8327 117.904 34.4902C118.126 35.1413 118.236 35.8477 118.236 36.6094V36.834C118.236 37.5957 118.126 38.3021 117.904 38.9531C117.683 39.6042 117.361 40.1738 116.938 40.6621C116.521 41.1439 116.016 41.5215 115.424 41.7949C114.838 42.0618 114.174 42.1953 113.432 42.1953C112.689 42.1953 112.022 42.0618 111.43 41.7949C110.837 41.5215 110.329 41.1439 109.906 40.6621C109.49 40.1738 109.171 39.6042 108.949 38.9531C108.728 38.3021 108.617 37.5957 108.617 36.834ZM110.424 36.6094V36.834C110.424 37.3613 110.486 37.8594 110.609 38.3281C110.733 38.7904 110.919 39.2005 111.166 39.5586C111.42 39.9167 111.736 40.1999 112.113 40.4082C112.491 40.61 112.93 40.7109 113.432 40.7109C113.926 40.7109 114.359 40.61 114.73 40.4082C115.108 40.1999 115.421 39.9167 115.668 39.5586C115.915 39.2005 116.101 38.7904 116.225 38.3281C116.355 37.8594 116.42 37.3613 116.42 36.834V36.6094C116.42 36.0885 116.355 35.597 116.225 35.1348C116.101 34.666 115.912 34.2526 115.658 33.8945C115.411 33.5299 115.098 33.2435 114.721 33.0352C114.35 32.8268 113.913 32.7227 113.412 32.7227C112.917 32.7227 112.481 32.8268 112.104 33.0352C111.732 33.2435 111.42 33.5299 111.166 33.8945C110.919 34.2526 110.733 34.666 110.609 35.1348C110.486 35.597 110.424 36.0885 110.424 36.6094ZM124.309 33.6895V42H122.502V31.4336H124.211L124.309 33.6895ZM123.879 36.3164L123.127 36.2871C123.133 35.5645 123.241 34.8971 123.449 34.2852C123.658 33.6667 123.951 33.1296 124.328 32.6738C124.706 32.2181 125.155 31.8665 125.676 31.6191C126.203 31.3652 126.786 31.2383 127.424 31.2383C127.945 31.2383 128.413 31.3099 128.83 31.4531C129.247 31.5898 129.602 31.8112 129.895 32.1172C130.194 32.4232 130.422 32.8203 130.578 33.3086C130.734 33.7904 130.812 34.3796 130.812 35.0762V42H128.996V35.0566C128.996 34.5033 128.915 34.0605 128.752 33.7285C128.589 33.39 128.352 33.1458 128.039 32.9961C127.727 32.8398 127.342 32.7617 126.887 32.7617C126.438 32.7617 126.027 32.8561 125.656 33.0449C125.292 33.2337 124.976 33.4941 124.709 33.8262C124.449 34.1582 124.243 34.5391 124.094 34.9688C123.951 35.3919 123.879 35.8411 123.879 36.3164ZM139.98 31.4336V32.8203H134.268V31.4336H139.98ZM136.201 28.8652H138.008V39.3828C138.008 39.7409 138.063 40.0111 138.174 40.1934C138.285 40.3757 138.428 40.4961 138.604 40.5547C138.779 40.6133 138.968 40.6426 139.17 40.6426C139.32 40.6426 139.476 40.6296 139.639 40.6035C139.808 40.571 139.935 40.5449 140.02 40.5254L140.029 42C139.886 42.0456 139.697 42.0879 139.463 42.127C139.235 42.1725 138.958 42.1953 138.633 42.1953C138.19 42.1953 137.783 42.1074 137.412 41.9316C137.041 41.7559 136.745 41.4629 136.523 41.0527C136.309 40.6361 136.201 40.0762 136.201 39.373V28.8652ZM150.33 40.1934V34.7539C150.33 34.3372 150.245 33.9759 150.076 33.6699C149.913 33.3574 149.666 33.1165 149.334 32.9473C149.002 32.778 148.592 32.6934 148.104 32.6934C147.648 32.6934 147.247 32.7715 146.902 32.9277C146.564 33.084 146.297 33.2891 146.102 33.543C145.913 33.7969 145.818 34.0703 145.818 34.3633H144.012C144.012 33.9857 144.109 33.6113 144.305 33.2402C144.5 32.8691 144.78 32.5339 145.145 32.2344C145.516 31.9284 145.958 31.6875 146.473 31.5117C146.993 31.3294 147.573 31.2383 148.211 31.2383C148.979 31.2383 149.656 31.3685 150.242 31.6289C150.835 31.8893 151.297 32.2832 151.629 32.8105C151.967 33.3314 152.137 33.9857 152.137 34.7734V39.6953C152.137 40.0469 152.166 40.4212 152.225 40.8184C152.29 41.2155 152.384 41.5573 152.508 41.8438V42H150.623C150.532 41.7917 150.46 41.515 150.408 41.1699C150.356 40.8184 150.33 40.4928 150.33 40.1934ZM150.643 35.5938L150.662 36.8633H148.836C148.322 36.8633 147.863 36.9056 147.459 36.9902C147.055 37.0684 146.717 37.1888 146.443 37.3516C146.17 37.5143 145.962 37.7194 145.818 37.9668C145.675 38.2077 145.604 38.4909 145.604 38.8164C145.604 39.1484 145.678 39.4512 145.828 39.7246C145.978 39.998 146.202 40.2161 146.502 40.3789C146.808 40.5352 147.182 40.6133 147.625 40.6133C148.178 40.6133 148.667 40.4961 149.09 40.2617C149.513 40.0273 149.848 39.7409 150.096 39.4023C150.35 39.0638 150.486 38.735 150.506 38.416L151.277 39.2852C151.232 39.5586 151.108 39.8613 150.906 40.1934C150.704 40.5254 150.434 40.8444 150.096 41.1504C149.764 41.4499 149.367 41.7005 148.904 41.9023C148.449 42.0977 147.934 42.1953 147.361 42.1953C146.645 42.1953 146.017 42.0553 145.477 41.7754C144.943 41.4954 144.526 41.1211 144.227 40.6523C143.934 40.1771 143.787 39.6465 143.787 39.0605C143.787 38.4941 143.898 37.9961 144.119 37.5664C144.34 37.1302 144.66 36.7689 145.076 36.4824C145.493 36.1895 145.994 35.9681 146.58 35.8184C147.166 35.6686 147.82 35.5938 148.543 35.5938H150.643ZM161.207 40.7109C161.637 40.7109 162.034 40.623 162.398 40.4473C162.763 40.2715 163.062 40.0306 163.297 39.7246C163.531 39.4121 163.665 39.0573 163.697 38.6602H165.416C165.383 39.2852 165.172 39.8678 164.781 40.4082C164.397 40.9421 163.893 41.375 163.268 41.707C162.643 42.0326 161.956 42.1953 161.207 42.1953C160.413 42.1953 159.719 42.0553 159.127 41.7754C158.541 41.4954 158.053 41.1113 157.662 40.623C157.278 40.1348 156.988 39.5749 156.793 38.9434C156.604 38.3053 156.51 37.6315 156.51 36.9219V36.5117C156.51 35.8021 156.604 35.1315 156.793 34.5C156.988 33.862 157.278 33.2988 157.662 32.8105C158.053 32.3223 158.541 31.9382 159.127 31.6582C159.719 31.3783 160.413 31.2383 161.207 31.2383C162.034 31.2383 162.757 31.4076 163.375 31.7461C163.993 32.0781 164.479 32.5339 164.83 33.1133C165.188 33.6862 165.383 34.3372 165.416 35.0664H163.697C163.665 34.6302 163.541 34.2363 163.326 33.8848C163.118 33.5332 162.831 33.2533 162.467 33.0449C162.109 32.8301 161.689 32.7227 161.207 32.7227C160.654 32.7227 160.188 32.8333 159.811 33.0547C159.439 33.2695 159.143 33.5625 158.922 33.9336C158.707 34.2982 158.551 34.7051 158.453 35.1543C158.362 35.597 158.316 36.0495 158.316 36.5117V36.9219C158.316 37.3841 158.362 37.8398 158.453 38.2891C158.544 38.7383 158.697 39.1452 158.912 39.5098C159.133 39.8743 159.43 40.1673 159.801 40.3887C160.178 40.6035 160.647 40.7109 161.207 40.7109ZM173.871 31.4336V32.8203H168.158V31.4336H173.871ZM170.092 28.8652H171.898V39.3828C171.898 39.7409 171.954 40.0111 172.064 40.1934C172.175 40.3757 172.318 40.4961 172.494 40.5547C172.67 40.6133 172.859 40.6426 173.061 40.6426C173.21 40.6426 173.367 40.6296 173.529 40.6035C173.699 40.571 173.826 40.5449 173.91 40.5254L173.92 42C173.777 42.0456 173.588 42.0879 173.354 42.127C173.126 42.1725 172.849 42.1953 172.523 42.1953C172.081 42.1953 171.674 42.1074 171.303 41.9316C170.932 41.7559 170.635 41.4629 170.414 41.0527C170.199 40.6361 170.092 40.0762 170.092 39.373V28.8652Z" fill="#F2F2F2"/>
<path d="M23.3037 104.444H30.4575C30.314 106.789 29.668 108.87 28.5195 110.688C27.387 112.507 25.8 113.926 23.7583 114.947C21.7326 115.968 19.2922 116.479 16.437 116.479C14.2039 116.479 12.2021 116.096 10.4316 115.33C8.66113 114.549 7.14583 113.432 5.88574 111.98C4.6416 110.529 3.69255 108.774 3.03857 106.717C2.3846 104.659 2.05762 102.354 2.05762 99.8022V97.3857C2.05762 94.8337 2.39258 92.5288 3.0625 90.4712C3.74837 88.3976 4.72135 86.6351 5.98145 85.1836C7.25749 83.7321 8.78076 82.6156 10.5513 81.834C12.3218 81.0524 14.2996 80.6616 16.4849 80.6616C19.3879 80.6616 21.8363 81.188 23.8301 82.2407C25.8398 83.2935 27.395 84.745 28.4956 86.5952C29.6121 88.4455 30.2821 90.5509 30.5054 92.9116H23.3276C23.2479 91.508 22.9688 90.3197 22.4902 89.3467C22.0117 88.3577 21.286 87.616 20.313 87.1216C19.356 86.6112 18.0799 86.356 16.4849 86.356C15.2886 86.356 14.2438 86.5793 13.3506 87.0259C12.4574 87.4725 11.7077 88.1504 11.1016 89.0596C10.4954 89.9688 10.0409 91.1172 9.73779 92.5049C9.45068 93.8766 9.30713 95.4876 9.30713 97.3379V99.8022C9.30713 101.605 9.44271 103.192 9.71387 104.563C9.98503 105.919 10.3997 107.068 10.958 108.009C11.5322 108.934 12.266 109.636 13.1592 110.114C14.0684 110.577 15.161 110.808 16.437 110.808C17.9364 110.808 19.1725 110.569 20.1455 110.09C21.1185 109.612 21.8602 108.902 22.3706 107.961C22.897 107.02 23.208 105.847 23.3037 104.444ZM38.5396 103.319V102.817C38.5396 100.919 38.8108 99.1722 39.3531 97.5771C39.8954 95.9661 40.685 94.5705 41.7218 93.3901C42.7586 92.2098 44.0346 91.2926 45.5499 90.6387C47.0652 89.9688 48.8038 89.6338 50.7657 89.6338C52.7276 89.6338 54.4742 89.9688 56.0055 90.6387C57.5367 91.2926 58.8207 92.2098 59.8575 93.3901C60.9103 94.5705 61.7078 95.9661 62.2501 97.5771C62.7924 99.1722 63.0636 100.919 63.0636 102.817V103.319C63.0636 105.201 62.7924 106.948 62.2501 108.559C61.7078 110.154 60.9103 111.55 59.8575 112.746C58.8207 113.926 57.5447 114.844 56.0294 115.498C54.5141 116.152 52.7755 116.479 50.8136 116.479C48.8517 116.479 47.1051 116.152 45.5738 115.498C44.0585 114.844 42.7745 113.926 41.7218 112.746C40.685 111.55 39.8954 110.154 39.3531 108.559C38.8108 106.948 38.5396 105.201 38.5396 103.319ZM45.4303 102.817V103.319C45.4303 104.404 45.526 105.417 45.7174 106.358C45.9088 107.299 46.2119 108.128 46.6266 108.846C47.0572 109.548 47.6155 110.098 48.3014 110.497C48.9872 110.896 49.8246 111.095 50.8136 111.095C51.7706 111.095 52.5921 110.896 53.2779 110.497C53.9638 110.098 54.5141 109.548 54.9288 108.846C55.3435 108.128 55.6466 107.299 55.838 106.358C56.0453 105.417 56.149 104.404 56.149 103.319V102.817C56.149 101.764 56.0453 100.775 55.838 99.8501C55.6466 98.909 55.3355 98.0796 54.9049 97.3618C54.4902 96.6281 53.9399 96.0539 53.254 95.6392C52.5681 95.2244 51.7387 95.0171 50.7657 95.0171C49.7927 95.0171 48.9633 95.2244 48.2774 95.6392C47.6075 96.0539 47.0572 96.6281 46.6266 97.3618C46.2119 98.0796 45.9088 98.909 45.7174 99.8501C45.526 100.775 45.4303 101.764 45.4303 102.817ZM78.9455 95.6392V116H72.0549V90.1123H78.5148L78.9455 95.6392ZM77.9406 102.147H76.0744C76.0744 100.233 76.3217 98.5103 76.8161 96.979C77.3106 95.4318 78.0044 94.1159 78.8977 93.0312C79.7909 91.9307 80.8516 91.0933 82.0798 90.519C83.3239 89.9289 84.7116 89.6338 86.2429 89.6338C87.4551 89.6338 88.5637 89.8092 89.5686 90.1602C90.5734 90.5111 91.4348 91.0693 92.1525 91.835C92.8863 92.6006 93.4445 93.6134 93.8273 94.8735C94.2261 96.1336 94.4255 97.6729 94.4255 99.4912V116H87.487V99.4673C87.487 98.3188 87.3275 97.4256 87.0085 96.7876C86.6895 96.1496 86.2189 95.703 85.5969 95.4478C84.9908 95.1766 84.2411 95.041 83.3479 95.041C82.4227 95.041 81.6172 95.2244 80.9314 95.5913C80.2614 95.9582 79.7032 96.4686 79.2565 97.1226C78.8259 97.7606 78.4989 98.5103 78.2756 99.3716C78.0523 100.233 77.9406 101.158 77.9406 102.147ZM117.246 90.1123V94.9932H102.173V90.1123H117.246ZM105.905 83.7241H112.796V108.2C112.796 108.95 112.891 109.524 113.083 109.923C113.29 110.322 113.593 110.601 113.992 110.76C114.391 110.904 114.893 110.976 115.499 110.976C115.93 110.976 116.313 110.96 116.648 110.928C116.999 110.88 117.294 110.832 117.533 110.784L117.557 115.856C116.967 116.048 116.329 116.199 115.643 116.311C114.957 116.423 114.199 116.479 113.37 116.479C111.855 116.479 110.531 116.231 109.398 115.737C108.282 115.226 107.42 114.413 106.814 113.296C106.208 112.18 105.905 110.712 105.905 108.894V83.7241ZM140.042 110.162V98.6299C140.042 97.8005 139.907 97.0907 139.636 96.5005C139.364 95.8944 138.942 95.4238 138.368 95.0889C137.809 94.7539 137.084 94.5864 136.19 94.5864C135.425 94.5864 134.763 94.722 134.204 94.9932C133.646 95.2484 133.216 95.6232 132.912 96.1177C132.609 96.5962 132.458 97.1624 132.458 97.8164H125.567C125.567 96.7158 125.822 95.6711 126.333 94.6821C126.843 93.6932 127.585 92.8239 128.558 92.0742C129.531 91.3086 130.687 90.7104 132.027 90.2798C133.383 89.8491 134.898 89.6338 136.573 89.6338C138.583 89.6338 140.369 89.9688 141.933 90.6387C143.496 91.3086 144.724 92.3135 145.617 93.6533C146.526 94.9932 146.981 96.668 146.981 98.6777V109.755C146.981 111.175 147.069 112.339 147.244 113.249C147.419 114.142 147.675 114.923 148.01 115.593V116H141.047C140.712 115.298 140.457 114.421 140.282 113.368C140.122 112.299 140.042 111.231 140.042 110.162ZM140.952 100.233L140.999 104.133H137.147C136.238 104.133 135.449 104.236 134.779 104.444C134.109 104.651 133.558 104.946 133.128 105.329C132.697 105.696 132.378 106.127 132.171 106.621C131.979 107.116 131.884 107.658 131.884 108.248C131.884 108.838 132.019 109.373 132.29 109.851C132.562 110.314 132.952 110.681 133.463 110.952C133.973 111.207 134.571 111.334 135.257 111.334C136.294 111.334 137.195 111.127 137.961 110.712C138.726 110.298 139.317 109.787 139.731 109.181C140.162 108.575 140.385 108.001 140.401 107.458L142.22 110.377C141.964 111.031 141.614 111.709 141.167 112.411C140.736 113.113 140.186 113.775 139.516 114.397C138.846 115.003 138.041 115.506 137.1 115.904C136.158 116.287 135.042 116.479 133.75 116.479C132.107 116.479 130.616 116.152 129.276 115.498C127.952 114.828 126.899 113.91 126.118 112.746C125.352 111.566 124.969 110.226 124.969 108.727C124.969 107.371 125.224 106.167 125.735 105.114C126.245 104.061 126.995 103.176 127.984 102.458C128.989 101.724 130.241 101.174 131.74 100.807C133.239 100.424 134.978 100.233 136.956 100.233H140.952ZM167.887 111.095C168.733 111.095 169.482 110.936 170.136 110.617C170.79 110.282 171.301 109.819 171.667 109.229C172.05 108.623 172.25 107.913 172.266 107.1H178.75C178.734 108.918 178.247 110.537 177.29 111.957C176.333 113.36 175.049 114.469 173.438 115.282C171.827 116.08 170.025 116.479 168.031 116.479C166.021 116.479 164.266 116.144 162.767 115.474C161.284 114.804 160.048 113.879 159.059 112.698C158.07 111.502 157.328 110.114 156.833 108.535C156.339 106.94 156.092 105.233 156.092 103.415V102.721C156.092 100.887 156.339 99.1802 156.833 97.6011C157.328 96.006 158.07 94.6183 159.059 93.438C160.048 92.2417 161.284 91.3086 162.767 90.6387C164.25 89.9688 165.989 89.6338 167.983 89.6338C170.104 89.6338 171.963 90.0405 173.558 90.854C175.169 91.6675 176.429 92.8319 177.338 94.3472C178.263 95.8465 178.734 97.625 178.75 99.6826H172.266C172.25 98.8213 172.066 98.0397 171.715 97.3379C171.38 96.6361 170.886 96.0778 170.232 95.6631C169.594 95.2324 168.804 95.0171 167.863 95.0171C166.858 95.0171 166.037 95.2324 165.399 95.6631C164.761 96.0778 164.266 96.652 163.916 97.3857C163.565 98.1035 163.317 98.925 163.174 99.8501C163.046 100.759 162.982 101.716 162.982 102.721V103.415C162.982 104.42 163.046 105.385 163.174 106.31C163.301 107.235 163.541 108.057 163.892 108.774C164.258 109.492 164.761 110.058 165.399 110.473C166.037 110.888 166.866 111.095 167.887 111.095ZM200.326 90.1123V94.9932H185.253V90.1123H200.326ZM188.985 83.7241H195.876V108.2C195.876 108.95 195.971 109.524 196.163 109.923C196.37 110.322 196.673 110.601 197.072 110.76C197.471 110.904 197.973 110.976 198.579 110.976C199.01 110.976 199.393 110.96 199.728 110.928C200.079 110.88 200.374 110.832 200.613 110.784L200.637 115.856C200.047 116.048 199.409 116.199 198.723 116.311C198.037 116.423 197.279 116.479 196.45 116.479C194.934 116.479 193.611 116.231 192.478 115.737C191.362 115.226 190.5 114.413 189.894 113.296C189.288 112.18 188.985 110.712 188.985 108.894V83.7241ZM245.919 81.1641H253.073V104.181C253.073 106.86 252.498 109.117 251.35 110.952C250.217 112.786 248.646 114.166 246.637 115.091C244.643 116.016 242.346 116.479 239.746 116.479C237.146 116.479 234.833 116.016 232.807 115.091C230.798 114.166 229.219 112.786 228.07 110.952C226.938 109.117 226.371 106.86 226.371 104.181V81.1641H233.549V104.181C233.549 105.744 233.796 107.02 234.291 108.009C234.785 108.998 235.495 109.723 236.42 110.186C237.361 110.649 238.47 110.88 239.746 110.88C241.054 110.88 242.162 110.649 243.072 110.186C243.997 109.723 244.699 108.998 245.177 108.009C245.672 107.02 245.919 105.744 245.919 104.181V81.1641ZM277.448 108.846C277.448 108.352 277.305 107.905 277.017 107.506C276.73 107.108 276.196 106.741 275.414 106.406C274.649 106.055 273.54 105.736 272.089 105.449C270.781 105.162 269.561 104.803 268.428 104.372C267.312 103.925 266.339 103.391 265.509 102.769C264.696 102.147 264.058 101.413 263.595 100.568C263.133 99.7065 262.901 98.7256 262.901 97.625C262.901 96.5404 263.133 95.5195 263.595 94.5625C264.074 93.6055 264.752 92.7601 265.629 92.0264C266.522 91.2767 267.607 90.6945 268.883 90.2798C270.175 89.8491 271.626 89.6338 273.237 89.6338C275.486 89.6338 277.416 89.9927 279.027 90.7104C280.654 91.4282 281.898 92.4172 282.76 93.6772C283.637 94.9214 284.076 96.341 284.076 97.936H277.185C277.185 97.2661 277.041 96.668 276.754 96.1416C276.483 95.5993 276.052 95.1766 275.462 94.8735C274.888 94.5545 274.138 94.395 273.213 94.395C272.448 94.395 271.786 94.5306 271.227 94.8018C270.669 95.057 270.239 95.4079 269.935 95.8545C269.648 96.2852 269.505 96.7637 269.505 97.29C269.505 97.6888 269.585 98.0477 269.744 98.3667C269.92 98.6698 270.199 98.9489 270.581 99.2041C270.964 99.4593 271.459 99.6986 272.065 99.9219C272.687 100.129 273.453 100.321 274.362 100.496C276.228 100.879 277.895 101.381 279.362 102.003C280.83 102.61 281.994 103.439 282.855 104.492C283.717 105.528 284.147 106.892 284.147 108.583C284.147 109.731 283.892 110.784 283.382 111.741C282.871 112.698 282.138 113.536 281.181 114.253C280.224 114.955 279.075 115.506 277.735 115.904C276.411 116.287 274.92 116.479 273.261 116.479C270.853 116.479 268.811 116.048 267.136 115.187C265.477 114.325 264.217 113.233 263.356 111.909C262.51 110.569 262.088 109.197 262.088 107.793H268.62C268.651 108.735 268.891 109.492 269.337 110.066C269.8 110.641 270.382 111.055 271.084 111.311C271.802 111.566 272.575 111.693 273.405 111.693C274.298 111.693 275.04 111.574 275.63 111.334C276.22 111.079 276.667 110.744 276.97 110.33C277.289 109.899 277.448 109.404 277.448 108.846Z" fill="white"/>
<path d="M84.375 23.4688V28.1562C84.375 31.3789 86.4258 34.0156 89.3555 34.8945C112.207 41.3398 128.906 62.1406 128.906 86.75C128.906 116.633 104.59 140.656 75 140.656C45.1172 140.656 21.0938 116.633 21.0938 86.75C21.0938 62.1406 37.5 41.3398 60.3516 34.8945C63.2812 34.0156 65.625 31.3789 65.625 28.1562V23.4688C65.625 18.7812 61.2305 15.2656 56.543 16.4375C25.1953 24.6406 2.05078 53.3516 2.34375 87.3359C2.34375 127.473 34.8633 159.699 75 159.406C115.137 159.406 147.656 126.887 147.656 86.75C147.656 53.0586 124.219 24.6406 92.8711 16.4375C88.4766 15.2656 84.375 18.7812 84.375 23.4688Z" fill="#FAD62C" fill-opacity="0.3"/>
</svg>
